<svg xmlns="http://www.w3.org/2000/svg" width="72" height="40.705" viewBox="0 0 72 40.705">
  <g id="Bread" transform="translate(-2.4 -18.095)">
    <g id="그룹_42" data-name="그룹 42">
      <path id="패스_119" data-name="패스 119" d="M25.56,23.292,23.784,29.94a3.6,3.6,0,1,1-6.948-1.86l.408-1.536a40.656,40.656,0,0,1,8.316-3.252Z" fill="#aa6100"/>
      <path id="패스_120" data-name="패스 120" d="M42.1,21.732,39.4,31.8a3.6,3.6,0,0,1-6.96-1.86l2.2-8.208h.012c1.236-.084,2.484-.132,3.756-.132C39.648,21.6,40.884,21.648,42.1,21.732Z" fill="#aa6100"/>
      <path id="패스_121" data-name="패스 121" d="M57.216,25.416l-.972,3.624a3.6,3.6,0,0,1-6.96-1.872l1.1-4.1a42.315,42.315,0,0,1,6.828,2.352Z" fill="#aa6100"/>
    </g>
    <path fill ="#000" id="패스_122" data-name="패스 122" d="M17.244,26.544l-.408,1.536a3.6,3.6,0,1,0,6.948,1.86l1.776-6.648.7-2.592a48.18,48.18,0,0,1,9.036-1.4l-.648,2.436h-.012l-2.2,8.208A3.6,3.6,0,0,0,39.4,31.8l2.7-10.068.624-2.34a47.556,47.556,0,0,1,8.268,1.428l-.6,2.244-1.1,4.1a3.6,3.6,0,0,0,6.96,1.872l.972-3.624.576-2.148C67.092,27.576,73.2,34.9,73.2,43.2c0,13.26-15.576,14.4-34.8,14.4S3.6,56.46,3.6,43.2c0-8,5.664-15.084,14.388-19.428Z" fill="#ff9811"/>
    <path fill ="#000" id="패스_123" data-name="패스 123" d="M58.3,22.176a1.23,1.23,0,0,0-1.008,0,1.253,1.253,0,0,0-.66.78l-.216.828a42.442,42.442,0,0,0-4.56-1.56l.3-1.092a1.22,1.22,0,0,0-.852-1.476,49.1,49.1,0,0,0-8.484-1.464,1.214,1.214,0,0,0-1.26.888l-.372,1.4c-1.692-.084-3.336-.108-4.956-.036l.228-.84A1.218,1.218,0,0,0,35.22,18.1a50.04,50.04,0,0,0-9.264,1.44,1.216,1.216,0,0,0-.864.852l-.516,1.944a42.667,42.667,0,0,0-5.5,2l.06-.228a1.11,1.11,0,0,0,.048-.348,1.193,1.193,0,0,0-1.044-1.188,1.222,1.222,0,0,0-.828.192C7.968,27.468,2.4,35.1,2.4,43.2c0,14.424,16.308,15.6,36,15.6s36-1.176,36-15.6C74.4,34.716,68.376,26.856,58.3,22.176Zm-7.848,5.3.78-2.916a41.385,41.385,0,0,1,4.548,1.572l-.7,2.592a2.312,2.312,0,0,1-1.116,1.452,2.369,2.369,0,0,1-1.824.24A2.312,2.312,0,0,1,50.688,29.3,2.363,2.363,0,0,1,50.448,27.48Zm-14.88-4.6a49.318,49.318,0,0,1,4.98-.036l-2.316,8.64a2.408,2.408,0,0,1-2.94,1.7,2.312,2.312,0,0,1-1.452-1.116,2.363,2.363,0,0,1-.24-1.824ZM18,28.392l.264-1.008a39.81,39.81,0,0,1,5.58-2.328L22.62,29.628A2.391,2.391,0,1,1,18,28.392ZM38.4,56.4c-21.792,0-33.6-2.1-33.6-13.2,0-6.5,4.176-12.732,11.3-17.028l-.432,1.6a4.8,4.8,0,0,0,9.276,2.484l2.28-8.556A45.738,45.738,0,0,1,33.7,20.628l-2.424,9a4.807,4.807,0,1,0,9.288,2.484l3.06-11.436a46.059,46.059,0,0,1,5.892,1.008L48.12,26.856a4.809,4.809,0,0,0,9.288,2.5l1.164-4.368C67.008,29.3,72,36.036,72,43.2c0,11.1-11.808,13.2-33.6,13.2Z"/>
  </g>
</svg>
