<svg xmlns="http://www.w3.org/2000/svg" width="71" height="59.548" viewBox="0 0 71 59.548">
  <g id="canned-food" transform="translate(-1.145 -6.871)">
    <path id="패스_93" data-name="패스 93" d="M16.032,32.752V62.526C7.684,60.018,2.29,56.033,2.29,51.532V21.758C2.29,26.259,7.684,30.244,16.032,32.752Z" fill="#ccd1d9"/>
    <path id="패스_94" data-name="패스 94" d="M71,21.758V51.532c0,4.5-5.394,8.486-13.742,10.994V32.752C65.606,30.244,71,26.259,71,21.758Z" fill="#ccd1d9"/>
    <path id="패스_95" data-name="패스 95" d="M57.258,32.752V62.526a73.042,73.042,0,0,1-20.613,2.748,73.042,73.042,0,0,1-20.613-2.748V32.752A73.042,73.042,0,0,0,36.645,35.5a73.042,73.042,0,0,0,20.613-2.748Z" fill="#e6e9ed"/>
    <path id="패스_96" data-name="패스 96" d="M51.658,48.727a1.862,1.862,0,0,1,0,3.321l-6.184,3.08a9.165,9.165,0,0,1-4.145.985,9.363,9.363,0,0,1-2.451-.332l-11.394-3.1-6.871,3.435V44.661L27.484,48.1l11.394-3.1a9.363,9.363,0,0,1,2.451-.332,9.165,9.165,0,0,1,4.145.985Z" fill="#ff826e"/>
    <path id="패스_97" data-name="패스 97" d="M71,21.758c0,4.5-5.394,8.486-13.742,10.994A73.042,73.042,0,0,1,36.645,35.5a73.042,73.042,0,0,1-20.613-2.748C7.684,30.244,2.29,26.259,2.29,21.758c0-7.592,15.38-13.742,34.355-13.742S71,14.166,71,21.758Z" fill="#fcd770"/>
    <path id="패스_98" data-name="패스 98" d="M36.645,12.6c19.64,0,29.774,6.424,29.774,9.161s-10.135,9.161-29.774,9.161S6.871,24.495,6.871,21.758,17.006,12.6,36.645,12.6Z" fill="#ffeaa7"/>
    <path id="패스_99" data-name="패스 99" d="M45.932,18.334l10.341.79a3.8,3.8,0,0,1,2.943,1.66,1.935,1.935,0,0,1,.332.973,1.935,1.935,0,0,1-.332.973,3.8,3.8,0,0,1-2.943,1.66l-10.341.79a1.855,1.855,0,0,1-.252.011,3.3,3.3,0,0,1-3.31-3.31v-.069a3.429,3.429,0,0,1,3.092-3.481,3.211,3.211,0,0,1,.47,0Z" fill="#969faa"/>
    <path fill ="#000" id="패스_100" data-name="패스 100" d="M52.166,47.705l-6.177-3.088a10.539,10.539,0,0,0-7.409-.734L27.6,46.876l-8.136-4.068V57.966L27.6,53.9,38.579,56.89a10.546,10.546,0,0,0,7.409-.734l6.177-3.089a3,3,0,0,0,0-5.363ZM51.141,51.02l-6.177,3.089a8.217,8.217,0,0,1-5.783.573L27.362,51.458l-5.6,2.8V46.514l5.606,2.8,11.818-3.224a8.23,8.23,0,0,1,5.783.573l6.177,3.088a.708.708,0,0,1,0,1.267Z"/>
    <path fill ="#000" id="패스_101" data-name="패스 101" d="M44.874,40.849l-.211-2.28q-1.12.1-2.254.178l.15,2.286q1.163-.077,2.314-.183Z"/>
    <path fill ="#000" id="패스_102" data-name="패스 102" d="M54.062,39.467l-.479-2.24q-1.091.234-2.21.435l.405,2.255Q52.935,39.707,54.062,39.467Z"/>
    <path fill ="#000" id="패스_103" data-name="패스 103" d="M49.485,40.295l-.338-2.266q-1.11.167-2.236.3l.273,2.273Q48.342,40.464,49.485,40.295Z"/>
    <path fill ="#000" id="패스_104" data-name="패스 104" d="M36.645,6.871c-19.906,0-35.5,6.539-35.5,14.887V51.532c0,8.348,15.594,14.887,35.5,14.887s35.5-6.539,35.5-14.887V21.758C72.145,13.41,56.551,6.871,36.645,6.871Zm0,2.29c19.865,0,33.21,6.514,33.21,12.6s-13.345,12.6-33.21,12.6-33.21-6.514-33.21-12.6S16.78,9.161,36.645,9.161ZM3.435,51.532V27.111c2.325,2.6,6.312,4.836,11.452,6.486V60.97C7.658,58.512,3.435,54.954,3.435,51.532ZM17.177,61.68V34.272a75.646,75.646,0,0,0,19.468,2.373,75.646,75.646,0,0,0,19.468-2.373V61.68a72.158,72.158,0,0,1-19.468,2.449A72.158,72.158,0,0,1,17.177,61.68ZM69.855,51.532c0,3.422-4.222,6.98-11.452,9.437V33.6c5.139-1.65,9.127-3.883,11.452-6.486Z"/>
    <path fill ="#000" fill ="#000" fill ="#000" id="패스_105" data-name="패스 105" d="M65.274,51.532c-.008.294-.932,1.9-5.062,3.807l.962,2.078c4.061-1.877,6.39-4.023,6.39-5.885v-2.29h-2.29Z"/>
    <path fill ="#000" fill ="#000" id="패스_106" data-name="패스 106" d="M45.679,26.339c.116,0,.231,0,.341-.014l10.343-.795a4.922,4.922,0,0,0,3.82-2.2,2.695,2.695,0,0,0,0-3.154,4.922,4.922,0,0,0-3.82-2.2l-10.345-.8a4.465,4.465,0,0,0-4.792,4.7A4.458,4.458,0,0,0,45.679,26.339Zm-.147-6.866c.05,0,.1,0,.147,0s.112,0,.166.006l10.342.8A2.632,2.632,0,0,1,58.243,21.4a.937.937,0,0,1,.16.361.908.908,0,0,1-.161.362,2.63,2.63,0,0,1-2.054,1.128l-10.347.8a2.206,2.206,0,0,1-2.325-2.226,2.3,2.3,0,0,1,2.017-2.344Z"/>
    <path fill ="#000" id="패스_107" data-name="패스 107" d="M36.645,32.065c18.873,0,30.919-6.1,30.919-10.306S55.519,11.452,36.645,11.452,5.726,17.556,5.726,21.758,17.772,32.065,36.645,32.065Zm0-18.323c19.606,0,28.587,6.372,28.629,8.016-.042,1.644-9.023,8.016-28.629,8.016S8.059,23.4,8.016,21.758C8.059,20.114,17.039,13.742,36.645,13.742Z"/>
    <path  fill ="#000" fill ="#000" fill ="#000" fill ="#000" id="패스_108" data-name="패스 108" d="M65.274,44.661h2.29v2.29h-2.29Z"/>
    <path  fill ="#000" fill ="#000" fill ="#000" id="패스_109" data-name="패스 109" d="M10.306,54.968H12.6v2.29h-2.29Z"/>
    <path  fill ="#000" fill ="#000" id="패스_110" data-name="패스 110" d="M10.306,50.387H12.6v2.29h-2.29Z"/>
    <path fill ="#000"  id="패스_111" data-name="패스 111" d="M10.306,45.806H12.6V48.1h-2.29Z"/>
  </g>
</svg>
