<svg xmlns="http://www.w3.org/2000/svg" width="76" height="53.802" viewBox="0 0 76 53.802">
  <g id="cheese" transform="translate(-1.226 -12.484)">
    <g id="그룹_39" data-name="그룹 39">
      <path id="패스_66" data-name="패스 66" d="M76,29.64V49.253c0,6.325-8.507,12.135-20.839,14.71V44.35C67.493,41.775,76,35.965,76,29.64Z" fill="#ffc729"/>
      <path id="패스_67" data-name="패스 67" d="M33.1,48.027V64.968C15.7,63.705,2.452,57.147,2.452,49.253V29.64c0,7.906,13.214,14.685,30.645,15.935Z" fill="#ffc729"/>
      <path id="패스_68" data-name="패스 68" d="M55.161,44.35V63.963L33.1,48.027V29.64Z" fill="#ffeaa7"/>
      <path id="패스_69" data-name="패스 69" d="M76,29.64c0,6.325-8.507,12.135-20.839,14.71L33.1,29.64V45.575C15.666,44.325,2.452,37.546,2.452,29.64c0-8.8,16.463-15.935,36.774-15.935S76,20.839,76,29.64Z" fill="#fcd770"/>
      <g id="그룹_38" data-name="그룹 38">
        <ellipse id="타원_4" data-name="타원 4" cx="3.677" cy="2.452" rx="3.677" ry="2.452" transform="translate(20.839 54.156)" fill="#ffeaa7"/>
        <ellipse id="타원_5" data-name="타원 5" cx="3.677" cy="2.452" rx="3.677" ry="2.452" transform="translate(7.355 45.575)" fill="#ffeaa7"/>
        <ellipse id="타원_6" data-name="타원 6" cx="3.677" cy="2.452" rx="3.677" ry="2.452" transform="translate(34.323 18.608)" fill="#ffeaa7"/>
        <ellipse id="타원_7" data-name="타원 7" cx="3.677" cy="2.452" rx="3.677" ry="2.452" transform="translate(61.29 24.737)" fill="#ffeaa7"/>
        <ellipse id="타원_8" data-name="타원 8" cx="3.677" cy="2.452" rx="3.677" ry="2.452" transform="translate(55.161 33.317)" fill="#ffeaa7"/>
        <ellipse id="타원_9" data-name="타원 9" cx="3.677" cy="2.452" rx="3.677" ry="2.452" transform="translate(20.839 34.543)" fill="#ffeaa7"/>
        <ellipse id="타원_10" data-name="타원 10" cx="3.677" cy="2.452" rx="3.677" ry="2.452" transform="translate(7.355 27.188)" fill="#ffeaa7"/>
      </g>
    </g>
    <g id="그룹_40" data-name="그룹 40">
      <path fill ="#000" id="패스_70" data-name="패스 70" d="M39.226,12.484c-21.308,0-38,7.537-38,17.161V49.258c0,8.472,13.366,15.593,31.781,16.932l1.315.1V50.428L54.882,65.278l.53-.112c13.252-2.765,21.814-9.01,21.814-15.909V29.645c0-9.624-16.692-17.161-38-17.161Zm0,2.452c19.27,0,35.548,6.736,35.548,14.71,0,5.521-7.767,10.87-19.371,13.4L31.871,27.354v16.9c-15.912-1.426-28.194-7.73-28.194-14.6,0-7.974,16.279-14.71,35.548-14.71ZM3.677,49.258V35.863c4.534,5.526,14.989,9.71,28.194,10.845V63.639C15.707,62.194,3.677,56.108,3.677,49.258ZM34.323,31.935,53.935,45.01V61.57L34.323,47.4ZM74.774,49.258c0,5.363-7.332,10.562-18.387,13.171v-17.1c8.571-1.936,15.075-5.341,18.387-9.426Z"/>
      <path fill ="#000" id="패스_71" data-name="패스 71" d="M51.484,27.193V24.742c-1.5,0-2.452-.726-2.452-1.226s.955-1.226,2.452-1.226,2.452.726,2.452,1.226h2.452c0-2.063-2.154-3.677-4.9-3.677s-4.9,1.614-4.9,3.677S48.734,27.193,51.484,27.193Z"/>
      <path fill ="#000" id="패스_72" data-name="패스 72" d="M23.29,27.193c2.749,0,4.9-1.614,4.9-3.677s-2.154-3.677-4.9-3.677V22.29c1.5,0,2.452.726,2.452,1.226s-.955,1.226-2.452,1.226-2.452-.726-2.452-1.226H18.387C18.387,25.578,20.541,27.193,23.29,27.193Z"/>
      <path fill ="#000" id="패스_73" data-name="패스 73" d="M38,24.742c2.749,0,4.9-1.614,4.9-3.677s-2.154-3.677-4.9-3.677S33.1,19,33.1,21.064,35.251,24.742,38,24.742Zm0-4.9c1.5,0,2.452.726,2.452,1.226S39.5,22.29,38,22.29s-2.452-.726-2.452-1.226S36.5,19.838,38,19.838Z"/>
      <path fill ="#000" id="패스_74" data-name="패스 74" d="M53.935,35.774c0,2.063,2.154,3.677,4.9,3.677s4.9-1.614,4.9-3.677-2.154-3.677-4.9-3.677-4.9,1.614-4.9,3.677Zm4.9-1.226c1.5,0,2.452.726,2.452,1.226S60.335,37,58.839,37s-2.452-.726-2.452-1.226S57.342,34.548,58.839,34.548Z"/>
      <path fill ="#000" id="패스_75" data-name="패스 75" d="M64.968,30.871c2.749,0,4.9-1.614,4.9-3.677s-2.154-3.677-4.9-3.677-4.9,1.614-4.9,3.677S62.218,30.871,64.968,30.871Zm0-4.9c1.5,0,2.452.726,2.452,1.226s-.955,1.226-2.452,1.226-2.452-.726-2.452-1.226S63.471,25.967,64.968,25.967Z"/>
      <path fill ="#000" id="패스_76" data-name="패스 76" d="M19.613,37c0,2.063,2.154,3.677,4.9,3.677s4.9-1.614,4.9-3.677-2.154-3.677-4.9-3.677-4.9,1.614-4.9,3.677Zm7.355,0c0,.5-.955,1.226-2.452,1.226S22.065,37.5,22.065,37s.955-1.226,2.452-1.226S26.968,36.5,26.968,37Z"/>
      <path fill ="#000" id="패스_77" data-name="패스 77" d="M11.032,33.322c2.749,0,4.9-1.614,4.9-3.677s-2.154-3.677-4.9-3.677-4.9,1.614-4.9,3.677S8.283,33.322,11.032,33.322Zm0-4.9c1.5,0,2.452.726,2.452,1.226s-.955,1.226-2.452,1.226-2.452-.726-2.452-1.226S9.536,28.419,11.032,28.419Z"/>
      <path fill ="#000" id="패스_78" data-name="패스 78" d="M11.032,44.355c-2.749,0-4.9,1.614-4.9,3.677s2.154,3.677,4.9,3.677,4.9-1.614,4.9-3.677S13.782,44.355,11.032,44.355Zm0,4.9c-1.5,0-2.452-.726-2.452-1.226s.955-1.226,2.452-1.226,2.452.726,2.452,1.226S12.529,49.258,11.032,49.258Z"/>
      <path fill ="#000" id="패스_79" data-name="패스 79" d="M24.516,52.935c-2.749,0-4.9,1.614-4.9,3.677s2.154,3.677,4.9,3.677,4.9-1.614,4.9-3.677S27.266,52.935,24.516,52.935Zm0,4.9c-1.5,0-2.452-.726-2.452-1.226s.955-1.226,2.452-1.226,2.452.726,2.452,1.226S26.013,57.838,24.516,57.838Z"/>
      <path fill ="#000" id="패스_80" data-name="패스 80" d="M44.129,41.9v2.452c1.5,0,2.452.726,2.452,1.226s-.955,1.226-2.452,1.226-2.452-.726-2.452-1.226H39.226c0,2.063,2.154,3.677,4.9,3.677s4.9-1.614,4.9-3.677S46.879,41.9,44.129,41.9Z"/>
      <path fill ="#000" id="패스_81" data-name="패스 81" d="M67.419,46.806c-2.749,0-4.9,1.614-4.9,3.677s2.154,3.677,4.9,3.677V51.709c-1.5,0-2.452-.726-2.452-1.226s.955-1.226,2.452-1.226,2.452.726,2.452,1.226h2.452C72.323,48.421,70.169,46.806,67.419,46.806Z"/>
    </g>
  </g>
</svg>
