<svg xmlns="http://www.w3.org/2000/svg" width="72.401" height="72.401" viewBox="0 0 72.401 72.401">
  <g id="fish" transform="translate(-1.371 -1.371)">
    <path id="패스_82" data-name="패스 82" d="M70.641,6.245h3.211A1.029,1.029,0,0,1,75.02,7.413c0,5.629-1.693,11.678-5.85,15.59a23.411,23.411,0,0,1-2.324,8.933H65.678s-5.839,4.671-5.839,9.342a10.551,10.551,0,0,0,.257,2.277l-.257.058a19.634,19.634,0,0,1-10.51,9.751,60.708,60.708,0,0,1-10.545,2.943c-3.8.852-7.439,1.763-10.475,3.655A5.043,5.043,0,0,0,27,61.13c-6.9-.093-9.2-7.03-9.2-10.51l-.128-.28a4.337,4.337,0,0,0,1.3-.887,14.878,14.878,0,0,0,3-4.683c.934-2.114,1.693-4.566,2.581-7.228A74.589,74.589,0,0,1,27.5,29.776h.012a43.44,43.44,0,0,1,5.126-8.641,44.642,44.642,0,0,1,3.842-4.379,38.719,38.719,0,0,1,3.024-2.733,44.357,44.357,0,0,1,5.477-3.854A55.106,55.106,0,0,1,71.517,2.742c1.168,0,.292,1.752-.876,3.5Z" transform="translate(-2.416 -0.203)" fill="#e6e9ed"/>
    <g id="그룹_41" data-name="그룹 41" transform="translate(2.539 7.21)">
      <path id="패스_83" data-name="패스 83" d="M15.587,58.9c0,3.48,2.3,10.416,9.2,10.51-1.413,1.7-1.9,4.181-2.452,6.411-.689,2.826-1.495,5.267-4.414,5.267a13.942,13.942,0,0,1-11.21-5.138,19.432,19.432,0,0,1-3.97-12.378c1.039-5.22,8.618-2.978,12.717-4.951Z" transform="translate(-2.742 -15.696)" fill="#838f9b"/>
      <path id="패스_84" data-name="패스 84" d="M71.848,54.182c-.689.934-1.168,1.518-1.168,1.518a20.413,20.413,0,0,1-3.235-7.065h-.012a10.552,10.552,0,0,1-.257-2.277c0-4.671,5.839-9.342,5.839-9.342a8.758,8.758,0,0,1,3.5,7.007C76.519,47.351,73.553,51.87,71.848,54.182Z" transform="translate(-12.293 -12.493)" fill="#838f9b"/>
      <path id="패스_85" data-name="패스 85" d="M41.855,65.116A60.708,60.708,0,0,0,52.4,62.173c0,11.292-.163,12.5-14.013,17.108V72.274q0-3.5,3.5-7.007Z" transform="translate(-8.025 -16.222)" fill="#838f9b"/>
      <path id="패스_86" data-name="패스 86" d="M44.137,10.888a9.726,9.726,0,0,0-7.275-2.662c-2.756,0-5.57,1.81-8.268,4.589A49.049,49.049,0,0,0,23.07,19.9c-1.74,2.651-3.351,5.477-4.776,8.174-1.565,2.989-2.908,5.815-3.9,8.046-1.308,2.9-2.055,4.8-2.055,4.8s2.219,4.449,8.84,4.659c.934-2.114,1.693-4.566,2.581-7.228a74.59,74.59,0,0,1,2.954-7.766h.012a43.44,43.44,0,0,1,5.126-8.641,44.642,44.642,0,0,1,3.842-4.379,38.719,38.719,0,0,1,3.024-2.733A44.356,44.356,0,0,1,44.2,10.982Z" transform="translate(-4.164 -8.226)" fill="#838f9b"/>
    </g>
    <path id="패스_87" data-name="패스 87" d="M46.683,29.031l-.934-1.612c-2.336,2.336-7.007,7.007-12.845,14.013l6.936.689,4.741.479,4.671-11.678C49.147,30.923,49.042,30.911,46.683,29.031Z" transform="translate(-4.674 -3.861)" fill="#ccd1d9"/>
    <path id="패스_88" data-name="패스 88" d="M51.487,30.183c-.105,0-.21-.012-2.569-1.892l-.934-1.612,3.188-4.251a15.668,15.668,0,0,0,3.7,5.5Z" transform="translate(-6.909 -3.121)" fill="#969faa"/>
    <circle id="타원_11" data-name="타원 11" cx="2.336" cy="2.336" r="2.336" transform="translate(52.752 9.545)" fill="#656d78"/>
    <path id="패스_89" data-name="패스 89" d="M63.826,16.6a3.5,3.5,0,1,0-3.5-3.5A3.508,3.508,0,0,0,63.826,16.6Zm0-4.671A1.168,1.168,0,1,1,62.658,13.1,1.169,1.169,0,0,1,63.826,11.932Z" transform="translate(-8.738 -1.219)" fill ="#000" />
    <path id="패스_90" data-name="패스 90" d="M48.85,17.823H46.515a11.664,11.664,0,0,0,.714,3.719L44.462,25.23c-2.306,2.306-7.03,7.038-12.858,14.033L30.2,40.954l14.742,1.474L49.8,30.271l2.316-1.544a7.918,7.918,0,0,0,4.909,1.941V28.332c-3.868,0-8.174-6.265-8.174-10.51ZM48.305,24a16.884,16.884,0,0,0,2.1,3.063L48.59,28.271a5.44,5.44,0,0,1-1.874-2.151Zm-3.911,4.613-5.9,10.823-3.669-.367C38.772,34.432,42.113,30.933,44.394,28.613Zm-.973,11.316-2.407-.241L46.5,29.627a4.879,4.879,0,0,0,.8.589Z" transform="translate(-4.273 -2.439)" fill ="#000" />
    <path id="패스_91" data-name="패스 91" d="M63.227,26.339V24c-2.283,0-3.873-1.3-4.732-3.872l-2.214.739C57.867,25.629,61.313,26.339,63.227,26.339Z" transform="translate(-8.139 -2.781)" fill ="#000" />
    <path id="패스_92" data-name="패스 92" d="M67.906,23.339c4.177-4.193,5.866-10.44,5.866-16.129a2.189,2.189,0,0,0-2.336-2.336H70.263c.8-1.682.525-2.3.4-2.581A1.635,1.635,0,0,0,69.1,1.371,57.3,57.3,0,0,0,42.719,8.532a10.772,10.772,0,0,0-7.483-2.49C22.9,6.042,10.162,38.114,9.626,39.48l-.19.485.232.465c.1.194,2.216,4.262,8.095,5.142a12.01,12.01,0,0,1-2.037,2.853c-1.2,1.2-3.576,1.4-5.876,1.592-3.392.286-7.615.642-8.456,4.844l-.023.229c0,11,6.723,18.684,16.349,18.684,4.078,0,4.952-3.642,5.724-6.856.59-2.457,1.2-5,3.069-6.167A24.767,24.767,0,0,1,33.466,58a9.528,9.528,0,0,0-1.733,5.263v8.626l1.537-.511c13.871-4.623,14.766-6.191,14.809-17.468a20.657,20.657,0,0,0,9.183-7.872,22.724,22.724,0,0,0,2.73,5.081l.886,1.182.946-1.135c.248-.3,6.109-7.39,6.109-12.425a9.8,9.8,0,0,0-2.442-6.518,24.778,24.778,0,0,0,2.415-8.882ZM40.554,9.849c-1.212.782-2.411,1.636-3.587,2.569a21.323,21.323,0,0,0-7.22-1.593,9.055,9.055,0,0,1,5.49-2.448A8.462,8.462,0,0,1,40.554,9.849ZM27.4,13.052A28.418,28.418,0,0,1,34.974,14.1c-.585.523-1.164,1.06-1.732,1.628a45.23,45.23,0,0,0-3.281,3.668,18.082,18.082,0,0,0-6.369-1.559A45.232,45.232,0,0,1,27.4,13.052ZM21.491,35.591a20.51,20.51,0,0,0-7.009-1.476c.852-1.842,1.821-3.827,2.88-5.856,1.752.1,4.748.531,6.257,1.748C22.784,31.936,22.1,33.809,21.491,35.591Zm3.131-7.76a14.181,14.181,0,0,0-6.055-1.823c1.106-2.014,2.288-4.025,3.52-5.933a20.062,20.062,0,0,1,6.437,1.205,45.032,45.032,0,0,0-3.9,6.551ZM12.014,39.795c.4-.993.882-2.139,1.431-3.386,2.183.046,5.5.455,7.3,1.415l-.117.355c-.608,1.852-1.185,3.584-1.825,5.151a9.045,9.045,0,0,1-6.791-3.535ZM17.72,71.436c-9.632,0-13.97-8.129-14.013-16.227.518-2.263,2.758-2.566,6.34-2.868a24.337,24.337,0,0,0,4.263-.619,14.159,14.159,0,0,0,.5,2.326l-6.8,2.267.739,2.215,6.919-2.306q.257.524.569,1.032L8.721,64.771l1.651,1.651,7.291-7.291a9.6,9.6,0,0,0,.956.889l-3.111,6.222L17.6,67.286l3.02-6.04a9.376,9.376,0,0,0,2,.624,21.967,21.967,0,0,0-1.443,4.5C20.327,69.893,19.744,71.436,17.72,71.436Zm16.349-2.791V63.262c0-1.992,1.053-4.058,3.126-6.144l.25-.056-1.029,7.2,2.312.33,1.155-8.082c.729-.168,1.461-.344,2.2-.537L41.09,61.9l2.3.384,1.168-7.007-.049-.008c.411-.131.821-.272,1.228-.418C45.692,63.965,44.958,64.967,34.068,68.645Zm22.31-25.757c-4.27,8.541-11.864,10.22-19.208,11.843-4.324.956-8.408,1.859-11.9,4.038a6.492,6.492,0,0,0-1.16.951c-5.5-.394-7.427-5.953-7.551-8.985a5.519,5.519,0,0,0,.813-.66c2.686-2.685,3.976-6.615,5.471-11.166,2.067-6.292,4.638-14.123,12.045-21.531C47.082,5.19,63.921,3.858,68.248,3.722A31.34,31.34,0,0,1,64.7,8.8L66.5,10.293c1-1.2,1.77-2.215,2.371-3.083h2.57c0,13.776-8.445,18.684-16.349,18.684v2.336a18.357,18.357,0,0,0,10.2-2.769A24.224,24.224,0,0,1,63.67,30.6l-.471-.314-.667.534c-.256.206-6.277,5.081-6.277,10.254a11.609,11.609,0,0,0,.151,1.826Zm6.884,2.149v-5.13H60.927v8.36a15.286,15.286,0,0,1-2.336-7.192c0-3.142,3.221-6.459,4.689-7.808A7.585,7.585,0,0,1,65.6,38.739C65.6,40.542,64.517,42.913,63.262,45.037Z" fill ="#000" />
  </g>
</svg>
