<svg xmlns="http://www.w3.org/2000/svg" width="75" height="75.35" viewBox="0 0 75 75.35">
  <g id="farming-and-gardening" transform="translate(-1.21 -0.86)">
    <g id="그룹_37" data-name="그룹 37">
      <g id="그룹_11" data-name="그룹 11">
        <path id="패스_39" data-name="패스 39" d="M75,68.952V73.79A1.213,1.213,0,0,1,73.79,75H3.629a1.213,1.213,0,0,1-1.21-1.21V68.952a1.213,1.213,0,0,1,1.21-1.21H73.79A1.213,1.213,0,0,1,75,68.952Z" fill="#b27946"/>
      </g>
      <g id="그룹_12" data-name="그룹 12">
        <path id="패스_40" data-name="패스 40" d="M75,56.855v4.839a1.213,1.213,0,0,1-1.21,1.21H3.629a1.213,1.213,0,0,1-1.21-1.21V56.855a1.213,1.213,0,0,1,1.21-1.21H65.976a4.834,4.834,0,0,0,8.31.109A1.2,1.2,0,0,1,75,56.855Z" fill="#b27946"/>
      </g>
      <g id="그룹_13" data-name="그룹 13">
        <path id="패스_41" data-name="패스 41" d="M53.226,50.806H3.629a1.213,1.213,0,0,1-1.21-1.21V44.758a1.213,1.213,0,0,1,1.21-1.21H49.04a4.832,4.832,0,0,0,4.185,7.258Z" fill="#b27946"/>
      </g>
      <g id="그룹_14" data-name="그룹 14">
        <path id="패스_42" data-name="패스 42" d="M4.839,62.9H72.581v4.839H4.839Z" fill="#cf9e76"/>
      </g>
      <g id="그룹_15" data-name="그룹 15">
        <path id="패스_43" data-name="패스 43" d="M61.694,55.645H4.839V50.806H53.226a4.839,4.839,0,0,0,.5-9.653l.012-.085a3.365,3.365,0,0,0,.7.06,4.783,4.783,0,0,0,2.468-.677,4.155,4.155,0,0,0-.048.677,4.837,4.837,0,0,0,4.839,4.839,4.839,4.839,0,1,0,0,9.677Z" fill="#cf9e76"/>
      </g>
      <g id="그룹_16" data-name="그룹 16">
        <path id="패스_44" data-name="패스 44" d="M70.065,4.851l-3.593.29A32.009,32.009,0,0,0,39.6,24.714L37.089,30.75a26.147,26.147,0,0,1-6.327-3.133l1.355-3.75A32.564,32.564,0,0,1,62.746,2.419a12.223,12.223,0,0,1,7.319,2.431Z" fill="#b4dd7f"/>
      </g>
      <g id="그룹_17" data-name="그룹 17">
        <path id="패스_45" data-name="패스 45" d="M75,14.673a32.5,32.5,0,0,1-5,17.335,4.888,4.888,0,0,0-2.262-.556,4.424,4.424,0,0,0-1.21.157H66.52a.69.69,0,0,0,.012-.157,4.886,4.886,0,0,0-1.173-3.157,31.989,31.989,0,0,0,6.919-17.347l.29-3.593A12.224,12.224,0,0,1,75,14.673Z" fill="#b4dd7f"/>
      </g>
      <g id="그룹_18" data-name="그룹 18">
        <path id="패스_46" data-name="패스 46" d="M39.653,31.488a25.985,25.985,0,0,1-2.565-.738L39.6,24.714A32.009,32.009,0,0,1,66.472,5.141l3.593-.29a12.153,12.153,0,0,1,1.343,1.161L68.383,7.355A46.9,46.9,0,0,0,46.367,27.69l-.435.8V28.5a4.78,4.78,0,0,0-2.371,3.956h-.012A12.2,12.2,0,0,0,39.653,31.488Z" fill="#a0d468"/>
      </g>
      <g id="그룹_19" data-name="그룹 19">
        <path id="패스_47" data-name="패스 47" d="M75,53.226a4.881,4.881,0,0,1-.714,2.528,4.834,4.834,0,0,1-8.31-.109,5.066,5.066,0,0,1-.653-2.419,4.857,4.857,0,0,1,4.839-4.839,4.6,4.6,0,0,1,1.633.29A4.824,4.824,0,0,1,75,53.226Z" fill="#b4dd7f"/>
      </g>
      <g id="그룹_20" data-name="그룹 20">
        <path id="패스_48" data-name="패스 48" d="M70.585,40.21a4.827,4.827,0,0,1,1.21,8.456v.012a4.6,4.6,0,0,0-1.633-.29,4.773,4.773,0,0,0-3.677,1.706,4.846,4.846,0,0,0-4.79-4.125,4.837,4.837,0,0,0,4.839-4.839,4.115,4.115,0,0,0-.036-.544,4.847,4.847,0,0,1,2.456-.665,4.6,4.6,0,0,1,1.633.29Z" fill="#b4dd7f"/>
      </g>
      <g id="그룹_21" data-name="그룹 21">
        <path id="패스_49" data-name="패스 49" d="M72.569,7.355l-.29,3.593a31.989,31.989,0,0,1-6.919,17.347A4.835,4.835,0,0,0,59,27.435a4.83,4.83,0,0,0-1.234-1.923c.907-.786,1.8-1.609,2.649-2.456a46.819,46.819,0,0,0,9.653-14.02l1.343-3.024a12.154,12.154,0,0,1,1.161,1.343Z" fill="#a0d468"/>
      </g>
      <g id="그룹_22" data-name="그룹 22">
        <path id="패스_50" data-name="패스 50" d="M70,32.008a4.846,4.846,0,0,1,.581,8.2,4.6,4.6,0,0,0-1.633-.29,4.847,4.847,0,0,0-2.456.665,4.825,4.825,0,0,0-4.8-4.294,4.819,4.819,0,0,0,4.827-4.681h.012a4.424,4.424,0,0,1,1.21-.157A4.888,4.888,0,0,1,70,32.008Z" fill="#b4dd7f"/>
      </g>
      <g id="그룹_23" data-name="그룹 23">
        <path id="패스_51" data-name="패스 51" d="M71.407,6.012,70.065,9.036a46.819,46.819,0,0,1-9.653,14.02c-.847.847-1.742,1.669-2.649,2.456A4.846,4.846,0,0,0,49.706,28a4.82,4.82,0,0,0-3.774.5v-.012l.435-.8A46.9,46.9,0,0,1,68.383,7.355Z" fill="#b4dd7f"/>
      </g>
      <g id="그룹_24" data-name="그룹 24">
        <path id="패스_52" data-name="패스 52" d="M66.532,31.452a.69.69,0,0,1-.012.157,4.83,4.83,0,0,1-7.294,4,4.842,4.842,0,0,0-1.585-2.952,4.828,4.828,0,0,0,1.633-3.629,4.665,4.665,0,0,0-.278-1.6,4.835,4.835,0,0,1,6.363.859A4.886,4.886,0,0,1,66.532,31.452Z" fill="#b4dd7f"/>
      </g>
      <g id="그룹_25" data-name="그룹 25">
        <path id="패스_53" data-name="패스 53" d="M66.5,40.585a4.115,4.115,0,0,1,.036.544,4.839,4.839,0,1,1-9.677,0,4.155,4.155,0,0,1,.048-.677,4.834,4.834,0,0,1,2.323-3.484,4.9,4.9,0,0,1,2.468-.677A4.825,4.825,0,0,1,66.5,40.585Z" fill="#b4dd7f"/>
      </g>
      <g id="그룹_26" data-name="그룹 26">
        <path id="패스_54" data-name="패스 54" d="M65.383,53.94h-.012a4.828,4.828,0,1,1,1.113-3.847,4.787,4.787,0,0,0-1.161,3.133A4.606,4.606,0,0,0,65.383,53.94Z" fill="#b4dd7f"/>
      </g>
      <g id="그룹_27" data-name="그룹 27">
        <path id="패스_55" data-name="패스 55" d="M59.274,36.29a4.155,4.155,0,0,1-.048.677A4.834,4.834,0,0,0,56.9,40.452a4.783,4.783,0,0,1-2.468.677,3.366,3.366,0,0,1-.7-.06,4.739,4.739,0,0,1-2.976-1.645A4.787,4.787,0,0,1,49.6,36.29a4.606,4.606,0,0,1,.06-.714,4.815,4.815,0,0,1,3.46-3.944,4.755,4.755,0,0,1,1.319-.181,4.827,4.827,0,0,1,4.79,4.161,4.155,4.155,0,0,1,.048.677Z" fill="#b4dd7f"/>
      </g>
      <g id="그룹_28" data-name="그룹 28">
        <path id="패스_56" data-name="패스 56" d="M59,27.435a4.664,4.664,0,0,1,.278,1.6,4.828,4.828,0,0,1-1.633,3.629,4.87,4.87,0,0,0-3.206-1.21,4.755,4.755,0,0,0-1.319.181A4.84,4.84,0,0,0,49.706,28,4.829,4.829,0,0,1,59,27.435Z" fill="#b4dd7f"/>
      </g>
      <g id="그룹_29" data-name="그룹 29">
        <path id="패스_57" data-name="패스 57" d="M53.722,41.153a4.851,4.851,0,1,1-.5-.024C53.4,41.129,53.552,41.141,53.722,41.153Z" fill="#b4dd7f"/>
      </g>
      <g id="그룹_30" data-name="그룹 30">
        <path id="패스_58" data-name="패스 58" d="M49.706,28a4.84,4.84,0,0,1,3.411,3.629,4.815,4.815,0,0,0-3.46,3.944h-.012a4.8,4.8,0,0,0-5.794-1.21v-.012a4.89,4.89,0,0,1-.3-1.694,1.174,1.174,0,0,1,.012-.206A4.837,4.837,0,0,1,49.706,28Z" fill="#b4dd7f"/>
      </g>
      <g id="그룹_31" data-name="그룹 31">
        <path id="패스_59" data-name="패스 59" d="M49.645,35.577h.012a4.606,4.606,0,0,0-.06.714,4.787,4.787,0,0,0,1.161,3.133,4.84,4.84,0,1,1-6.907-5.056,4.8,4.8,0,0,1,5.794,1.21Z" fill="#b4dd7f"/>
      </g>
      <g id="그룹_32" data-name="그룹 32">
        <path id="패스_60" data-name="패스 60" d="M45.968,43.548H26.613a12.108,12.108,0,0,1,12.1-12.1q.472,0,.944.036a12.2,12.2,0,0,1,3.9.968h.012a1.174,1.174,0,0,0-.012.206,4.89,4.89,0,0,0,.3,1.694v.012a4.834,4.834,0,0,0,2.117,9.181Z" fill="#ff826e"/>
      </g>
      <g id="그룹_33" data-name="그룹 33">
        <path id="패스_61" data-name="패스 61" d="M17.02,29.226a14.269,14.269,0,0,0-5.516,2.1,19.325,19.325,0,0,1-1.827-8.214v-.242a6.957,6.957,0,0,1,1.379-4.161l.169-.218a6.327,6.327,0,0,1,.581-.677,6.923,6.923,0,0,1,4.161-2.044,5.894,5.894,0,0,1,.8-.048,6.922,6.922,0,0,1,5.843,3.206l.569.907a26.428,26.428,0,0,0,7.585,7.778,26.147,26.147,0,0,0,6.327,3.133,25.986,25.986,0,0,0,2.565.738q-.472-.036-.944-.036A12.038,12.038,0,0,0,30.7,34.488a14.5,14.5,0,0,0-11.347-5.456,13.515,13.515,0,0,0-2.335.194Z" fill="#fcd770"/>
      </g>
      <g id="그룹_34" data-name="그룹 34">
        <path id="패스_62" data-name="패스 62" d="M17.02,29.226a13.515,13.515,0,0,1,2.335-.194A14.5,14.5,0,0,1,30.7,34.488a12.07,12.07,0,0,0-4.089,9.06H4.839A14.5,14.5,0,0,1,11.5,31.331,14.269,14.269,0,0,1,17.02,29.226Z" fill="#ff826e"/>
      </g>
      <g id="그룹_35" data-name="그룹 35">
        <path id="패스_63" data-name="패스 63" d="M19.355,6.206V6.29a4.337,4.337,0,0,1-3.278,4.21l-1.56.387L9.677,12.1,5.093,13.246a2.448,2.448,0,0,1-.52.06,2.158,2.158,0,0,1-2.153-2.153v-.919a2.163,2.163,0,0,1,1.73-2.117l6.931-1.379a8.513,8.513,0,0,0,5.383-3.6l.472-.714.109.06A4.167,4.167,0,0,1,19.355,6.206Z" fill="#b4dd7f"/>
      </g>
      <g id="그룹_36" data-name="그룹 36">
        <path id="패스_64" data-name="패스 64" d="M14.516,11.093a8.239,8.239,0,0,0,1.452,4.681,6.923,6.923,0,0,0-4.161,2.044A8.769,8.769,0,0,1,9.677,12.1l4.839-1.21Z" fill="#b4dd7f"/>
      </g>
    </g>
    <path fill ="#000"  id="패스_65" data-name="패스 65" d="M73.766,48.4a5.989,5.989,0,0,0-1.21-8.468,5.974,5.974,0,0,0-.956-8.258,33.732,33.732,0,0,0,4.609-17A13.482,13.482,0,0,0,62.742,1.21,33.793,33.793,0,0,0,30.983,23.454l-.812,2.231a25.361,25.361,0,0,1-5.97-6.5l-.579-.908a8.088,8.088,0,0,0-6.856-3.765c-.044,0-.086.007-.129.007a6.99,6.99,0,0,1-.858-2.706l.592-.148A5.557,5.557,0,0,0,20.565,6.21a5.356,5.356,0,0,0-2.978-4.818L16.521.86l-1.066,1.6A7.22,7.22,0,0,1,10.84,5.551L3.913,6.935a3.374,3.374,0,0,0-2.7,3.3v.918a3.364,3.364,0,0,0,4.179,3.264l3.2-.8a9.972,9.972,0,0,0,1.661,4.166l-.16.213a8.185,8.185,0,0,0-1.626,4.877v.248a20.38,20.38,0,0,0,1.565,7.794A15.693,15.693,0,0,0,3.691,42.339H3.629A2.422,2.422,0,0,0,1.21,44.758V49.6a2.422,2.422,0,0,0,2.419,2.419v2.419A2.422,2.422,0,0,0,1.21,56.855v4.839a2.422,2.422,0,0,0,2.419,2.419v2.419A2.422,2.422,0,0,0,1.21,68.952V73.79A2.422,2.422,0,0,0,3.629,76.21H73.79A2.422,2.422,0,0,0,76.21,73.79V68.952a2.422,2.422,0,0,0-2.419-2.419V64.113a2.422,2.422,0,0,0,2.419-2.419V56.855a2.408,2.408,0,0,0-.445-1.378,5.97,5.97,0,0,0-2-7.079Zm-3.6,8.457a3.629,3.629,0,1,1,3.629-3.629A3.633,3.633,0,0,1,70.161,56.855ZM38.71,32.661a10.809,10.809,0,0,1,3.687.654c.018.165.025.33.056.492a5.976,5.976,0,0,0-1.292,8.531H27.894A10.9,10.9,0,0,1,38.71,32.661Zm22.984,2.419a3.584,3.584,0,0,1-1.432-.329,6,6,0,0,0-1-2.073,6.05,6.05,0,0,0,1.227-3.646,5.937,5.937,0,0,0-.1-.957,3.625,3.625,0,1,1,1.306,7.005Zm3.629,6.048A3.629,3.629,0,1,1,61.694,37.5,3.633,3.633,0,0,1,65.323,41.129ZM44.769,32.782c0-.041-.011-.08-.011-.121a3.62,3.62,0,0,1,6.833-1.675,6.053,6.053,0,0,0-2.505,2.543,6.03,6.03,0,0,0-4.317-.746ZM69.017,8.4l-.062.138a45.448,45.448,0,0,1-9.4,13.66c-.6.6-1.231,1.185-1.865,1.752a6,6,0,0,0-3.256-.968,6.081,6.081,0,0,0-5.554,3.673c-.157-.013-.31-.041-.469-.041A45.236,45.236,0,0,1,68.878,8.464ZM55.868,39.59a3.594,3.594,0,0,1-1.432.329,3.629,3.629,0,1,1,3.629-3.629c0,.011,0,.022,0,.033A6.034,6.034,0,0,0,55.868,39.59ZM51.237,27.344a3.618,3.618,0,1,1,6.19,3.722,5.976,5.976,0,0,0-2.992-.824c-.168,0-.327.036-.492.05A6.079,6.079,0,0,0,51.237,27.344Zm13.934-.825a5.921,5.921,0,0,0-5.633-.7c-.036-.058-.063-.122-.1-.179.623-.561,1.239-1.133,1.831-1.727a47.862,47.862,0,0,0,9.9-14.384l.018-.04-.114,1.365a30.649,30.649,0,0,1-5.9,15.668Zm2.759-20.28-.037.017a48.028,48.028,0,0,0-22.587,20.86l-.288.527a6.052,6.052,0,0,0-2.369,3.2,13.2,13.2,0,0,0-2.728-.536c-.406-.094-.8-.225-1.2-.337l1.991-4.781A30.774,30.774,0,0,1,66.569,6.353ZM42.339,38.71a3.607,3.607,0,0,1,6.073-2.655c0,.08-.024.155-.024.236a6.01,6.01,0,0,0,1.06,3.41,3.622,3.622,0,0,1-7.108-.991ZM49.6,45.968A3.629,3.629,0,1,1,53.226,49.6,3.633,3.633,0,0,1,49.6,45.968Zm8.468,4.839a3.622,3.622,0,0,1,7.108-.991,6.01,6.01,0,0,0-1.06,3.41c0,.081.021.156.024.236a3.607,3.607,0,0,1-6.073-2.655Zm13.412-3.475a6.044,6.044,0,0,0-1.315-.154,5.982,5.982,0,0,0-3.1.882,6.085,6.085,0,0,0-1.784-2.085,6.02,6.02,0,0,0,2.44-4.6,3.6,3.6,0,0,1,3.758,5.958ZM68.952,38.71a6.047,6.047,0,0,0-1.635.229,6.06,6.06,0,0,0-2.031-2.648,6.04,6.04,0,0,0,2.331-3.613c.042,0,.083-.016.126-.016a3.605,3.605,0,0,1,2.525,6.2,6.044,6.044,0,0,0-1.315-.154Zm.52-8.186a5.98,5.98,0,0,0-1.73-.282c-.041,0-.081.007-.121.007a6,6,0,0,0-.777-1.927,33.042,33.042,0,0,0,6.548-16.546,10.99,10.99,0,0,1,.4,2.9,31.334,31.334,0,0,1-4.32,15.847ZM33.256,24.282A31.373,31.373,0,0,1,62.742,3.629a10.991,10.991,0,0,1,2.909.4A33.129,33.129,0,0,0,38.483,24.254L36.423,29.2a25.258,25.258,0,0,1-4.2-2.089ZM4.8,12.068a.951.951,0,0,1-1.176-.916v-.918a.948.948,0,0,1,.76-.927l6.927-1.385A9.612,9.612,0,0,0,17.263,4.1a3.049,3.049,0,0,1,.882,2.191,3.119,3.119,0,0,1-2.359,3.035Zm8.6.344a9.372,9.372,0,0,0,.744,2.55,8.2,8.2,0,0,0-2.123,1.1,7.531,7.531,0,0,1-1.056-3.04ZM10.887,23.118V22.87a5.742,5.742,0,0,1,1.14-3.423l.172-.227a5.708,5.708,0,0,1,9.383.36l.579.908a27.64,27.64,0,0,0,12.2,10.5,13.3,13.3,0,0,0-3.517,1.853,15.626,15.626,0,0,0-11.487-5.018c-.287,0-.566.028-.848.044a12.229,12.229,0,0,1,1.7-3.975l.157-.236-2.013-1.342-.157.236a14.633,14.633,0,0,0-2.246,5.658,15.567,15.567,0,0,0-3.835,1.4A18.016,18.016,0,0,1,10.887,23.118Zm4.842,7.639a14.737,14.737,0,0,0,1.031,5.3,4.634,4.634,0,0,1-1.89-1.119l-.709-.709-1.71,1.71.709.709a7.05,7.05,0,0,0,9.97,0l.709-.709-1.71-1.71-.709.709A4.645,4.645,0,0,1,19.4,36.092a12.315,12.315,0,0,1-1.259-5.4c0-.131.024-.259.029-.39.39-.035.781-.06,1.181-.06a13.223,13.223,0,0,1,9.679,4.2,13.256,13.256,0,0,0-3.57,7.9H6.109a13.325,13.325,0,0,1,9.621-11.581Zm-12.1,14H47.3A5.954,5.954,0,0,0,48.419,49.6H3.629Zm2.419,7.258H53.226a5.978,5.978,0,0,0,2.486-.549,5.988,5.988,0,0,0,1.173,2.969H6.048ZM73.792,73.79H3.629V68.952H73.79Zm-2.421-7.258H6.048V64.113H71.371ZM3.629,61.694V56.855H65.354a5.962,5.962,0,0,0,8.436,1.178v3.66Z"/>
  </g>
</svg>
