<svg xmlns="http://www.w3.org/2000/svg" width="48.327" height="75" viewBox="0 0 48.327 75">
  <g id="ice-cream" transform="translate(-13.336)">
    <path id="패스_166" data-name="패스 166" d="M30.58,12.867a10.912,10.912,0,0,1,1.273-5.121L25.5,1.373a.767.767,0,0,0-1.085,0l-9.712,9.748a.775.775,0,0,0,0,1.089L24.749,22.29a11.347,11.347,0,0,1,6.629-5.326A10.92,10.92,0,0,1,30.58,12.867Z" fill="#d2873c"/>
    <path id="패스_167" data-name="패스 167" d="M26.719,19.714l-9.957-10a.788.788,0,0,1-.219-.439l-1.835,1.841a.775.775,0,0,0,0,1.089L24.749,22.29A11.2,11.2,0,0,1,26.719,19.714Z" opacity="0.1"/>
    <path id="패스_168" data-name="패스 168" d="M49.152,16.468a11.572,11.572,0,0,1,3.361.5,10.916,10.916,0,0,0,.8-4.1,11.366,11.366,0,0,0-22.727,0,10.913,10.913,0,0,0,.8,4.1,11.566,11.566,0,0,1,3.359-.5A11.447,11.447,0,0,1,41.942,19,11.455,11.455,0,0,1,49.152,16.468Z" fill="#a0c663"/>
    <path id="패스_169" data-name="패스 169" d="M34.736,16.468a11.708,11.708,0,0,1,1.254.069,10.919,10.919,0,0,1-.634-3.671A11.2,11.2,0,0,1,44.332,1.975a11.631,11.631,0,0,0-2.388-.248A11.253,11.253,0,0,0,30.58,12.867a10.913,10.913,0,0,0,.8,4.1A11.569,11.569,0,0,1,34.736,16.468Z" opacity="0.1"/>
    <path id="패스_170" data-name="패스 170" d="M37.789,27.608A11.034,11.034,0,0,1,41.944,19a11.456,11.456,0,0,0-7.208-2.528,11.253,11.253,0,0,0-11.363,11.14,11.02,11.02,0,0,0,3.914,8.408.539.539,0,0,1,.352-.136h13.9A11.014,11.014,0,0,1,37.789,27.608Z" fill="#fff0c0"/>
    <path id="패스_171" data-name="패스 171" d="M27.638,35.88h4.282a11.01,11.01,0,0,1-3.758-8.272,11.2,11.2,0,0,1,8.968-10.89,11.614,11.614,0,0,0-2.4-.25,11.253,11.253,0,0,0-11.363,11.14,11.02,11.02,0,0,0,3.914,8.408A.537.537,0,0,1,27.638,35.88Z" opacity="0.1"/>
    <path id="패스_172" data-name="패스 172" d="M49.152,16.468a11.253,11.253,0,0,0-11.364,11.14,11.015,11.015,0,0,0,3.754,8.272H56.25a.538.538,0,0,1,.352.136,11.02,11.02,0,0,0,3.914-8.408A11.253,11.253,0,0,0,49.152,16.468Z" fill="#fca181"/>
    <path id="패스_173" data-name="패스 173" d="M41.542,35.88h4.766a11.01,11.01,0,0,1-3.757-8.272,11.2,11.2,0,0,1,8.982-10.893,11.615,11.615,0,0,0-2.381-.247,11.253,11.253,0,0,0-11.364,11.14A11.014,11.014,0,0,0,41.542,35.88Z" opacity="0.1"/>
    <path id="패스_174" data-name="패스 174" d="M53.906,42.151a2.9,2.9,0,0,1-2.638-1.883.373.373,0,0,0-.7,0,2.79,2.79,0,0,1-5.276,0,.373.373,0,0,0-.7,0,2.79,2.79,0,0,1-5.276,0,.373.373,0,0,0-.7,0,2.79,2.79,0,0,1-5.276,0,.373.373,0,0,0-.7,0,2.9,2.9,0,0,1-2.638,1.883,2.6,2.6,0,0,1-.576-.065l12.258,31.47c.154.394.4.394.558,0l12.258-31.47A2.612,2.612,0,0,1,53.906,42.151Z" fill="#ffaa0e"/>
    <path id="패스_175" data-name="패스 175" d="M53.906,42.151a2.9,2.9,0,0,1-2.638-1.883.373.373,0,0,0-.7,0,2.79,2.79,0,0,1-5.276,0,.373.373,0,0,0-.7,0,2.79,2.79,0,0,1-5.276,0,.373.373,0,0,0-.7,0,2.79,2.79,0,0,1-5.276,0,.373.373,0,0,0-.7,0,2.9,2.9,0,0,1-2.638,1.883,3.15,3.15,0,0,1-2.931-3.324V36.546a.63.63,0,0,1,.587-.666H56.25a.63.63,0,0,1,.587.666v2.281A3.15,3.15,0,0,1,53.906,42.151Z" fill="#554141"/>
    <path id="패스_176" data-name="패스 176" d="M33.325,40.269a.373.373,0,0,0-.7,0,2.9,2.9,0,0,1-2.638,1.883,2.6,2.6,0,0,1-.576-.065l12.258,31.47c.154.394.4.394.558,0l2.123-5.45L33.826,41.1A3.407,3.407,0,0,1,33.325,40.269Z" opacity="0.1"/>
    <g id="그룹_48" data-name="그룹 48" opacity="0.1">
      <path id="패스_177" data-name="패스 177" d="M30.214,38.827V36.546a.63.63,0,0,1,.587-.666H27.638a.63.63,0,0,0-.587.666v2.281a3.15,3.15,0,0,0,2.931,3.324,2.669,2.669,0,0,0,1.584-.526A3.448,3.448,0,0,1,30.214,38.827Z"/>
    </g>
    <ellipse fill ="#000" id="타원_16" data-name="타원 16" cx="1.503" cy="1.473" rx="1.503" ry="1.473" transform="translate(26.535 26.595)"/>
    <ellipse fill ="#000" id="타원_17" data-name="타원 17" cx="1.503" cy="1.473" rx="1.503" ry="1.473" transform="translate(31.99 29.656)"/>
    <ellipse fill ="#000" id="타원_18" data-name="타원 18" cx="1.503" cy="1.473" rx="1.503" ry="1.473" transform="translate(32.198 23.687)"/>
    <ellipse fill ="#000" id="타원_19" data-name="타원 19" cx="1.503" cy="1.473" rx="1.503" ry="1.473" transform="translate(27.243 21.275)"/>
    <path fill ="#000" id="패스_178" data-name="패스 178" d="M61.663,27.608a1.148,1.148,0,1,0-2.3,0A9.856,9.856,0,0,1,56.3,34.735l-.054,0H52.959a1.148,1.148,0,0,0,0,2.3h2.73v1.8A2.012,2.012,0,0,1,53.906,41a1.778,1.778,0,0,1-1.581-1.184,1.52,1.52,0,0,0-2.817,0,1.649,1.649,0,0,1-3.164,0,1.52,1.52,0,0,0-2.817,0,1.649,1.649,0,0,1-3.164,0,1.52,1.52,0,0,0-2.817,0,1.648,1.648,0,0,1-3.164,0,1.52,1.52,0,0,0-2.817,0A1.779,1.779,0,0,1,29.982,41,2.012,2.012,0,0,1,28.2,38.827v-1.8H48.52a1.148,1.148,0,1,0,0-2.3H42a9.855,9.855,0,0,1-3.06-7.124,10.117,10.117,0,0,1,10.216-9.992,10.283,10.283,0,0,1,9.528,6.379,1.148,1.148,0,0,0,2.134-.847,12.307,12.307,0,0,0-4.527-5.635,12.547,12.547,0,0,0-2.322-1.249,12.081,12.081,0,0,0-.339-7.805,1.148,1.148,0,0,0-2.138.837,9.776,9.776,0,0,1,.281,6.3,12.81,12.81,0,0,0-2.617-.271,12.594,12.594,0,0,0-7.21,2.254,12.586,12.586,0,0,0-7.206-2.254,12.726,12.726,0,0,0-2.617.272,9.737,9.737,0,0,1-.391-2.726A10.117,10.117,0,0,1,41.944,2.874a10.322,10.322,0,0,1,7.679,3.4,1.148,1.148,0,1,0,1.708-1.534,12.644,12.644,0,0,0-19.69,1.164L26.318.563a1.915,1.915,0,0,0-2.712,0l-9.712,9.749a1.924,1.924,0,0,0,0,2.709l9.46,9.5a12.081,12.081,0,0,0,2.566,13.8,1.891,1.891,0,0,0-.016.234v2.281a4.484,4.484,0,0,0,2.63,4.179L40.6,73.973a1.4,1.4,0,0,0,2.7,0L55.355,43.007a4.485,4.485,0,0,0,2.63-4.179V36.546a1.893,1.893,0,0,0-.016-.234A12.135,12.135,0,0,0,61.663,27.608ZM50.915,41.873a3.963,3.963,0,0,0,1.921,1.273l-.212.545H49.182v-.6A3.986,3.986,0,0,0,50.915,41.873Zm-.751,8.135h-.982V45.987H51.73ZM45.243,62.641H43.092V58.62h3.717ZM37.079,58.62H40.8v4.021H38.645Zm3.739-12.633a1.148,1.148,0,0,0,2.252,0h3.815v4.021H43.092V49.9a1.148,1.148,0,0,0-2.3,0v.11H36.551V45.987Zm2.274,10.337V52.3h3.794v4.021H43.092Zm-2.3,0H36.551V52.3H40.8Zm-6.541-6.317h-.531l-1.566-4.021h2.1v4.021Zm10.679-8.135a3.961,3.961,0,0,0,1.951,1.282v.536H43.092v-.57A3.971,3.971,0,0,0,44.935,41.873Zm-5.981,0A3.969,3.969,0,0,0,40.8,43.121v.57H36.551v-.439A3.916,3.916,0,0,0,38.954,41.873Zm-5.981,0a4.049,4.049,0,0,0,1.283,1.021v.8H31.264l-.212-.545A3.961,3.961,0,0,0,32.973,41.873ZM30.467,7.981q-.241.544-.429,1.114l-1.286,1.291L26.64,8.265,28.695,6.2Zm-1.715,5.658.785.787a11.914,11.914,0,0,0,.389,1.84,12.561,12.561,0,0,0-1.482.728l-1.517-1.523Zm-3.446.206-2.113-2.121,1.825-1.833,2.113,2.121ZM24.962,2.455l2.113,2.121L25.019,6.638,22.907,4.518ZM21.286,6.144,23.4,8.265,21.573,10.1,19.461,7.977Zm-5.5,5.522L17.84,9.6l2.113,2.121L17.9,13.787Zm3.733,3.747,2.055-2.063,2.113,2.121-2.055,2.063Zm3.733,3.747L25.306,17.1l1.234,1.238a12.47,12.47,0,0,0-1.981,2.138Zm4.332,15.575a9.856,9.856,0,0,1-3.063-7.127,10.012,10.012,0,0,1,6.434-9.279,1.5,1.5,0,0,0,2.993-.179,1.438,1.438,0,0,0-.089-.494c.289-.024.581-.039.877-.039a10.308,10.308,0,0,1,5.38,1.506,12.441,12.441,0,0,0-1.18,1.408,1.508,1.508,0,0,0-1.264-.679,1.473,1.473,0,1,0-.027,2.945,12.053,12.053,0,0,0,1.322,11.936H27.638Zm11.956,30.2H40.8v3.226Zm3.553,3.226V64.937h1.257Z"/>
    <path fill ="#000" id="패스_179" data-name="패스 179" d="M48.925,21.921a1.148,1.148,0,0,0,0-2.3H47.755a1.148,1.148,0,0,0,0,2.3Z"/>
    <path fill ="#000" id="패스_180" data-name="패스 180" d="M44.957,24.924a1.148,1.148,0,0,0-1.148-1.148H42.64a1.148,1.148,0,1,0,0,2.3h1.169A1.148,1.148,0,0,0,44.957,24.924Z"/>
    <path fill ="#000" id="패스_181" data-name="패스 181" d="M48.632,27.148H49.8a1.148,1.148,0,0,0,0-2.3H48.632a1.148,1.148,0,0,0,0,2.3Z"/>
    <path fill ="#000" id="패스_182" data-name="패스 182" d="M55.063,27.773H53.894a1.148,1.148,0,1,0,0,2.3h1.169a1.148,1.148,0,0,0,0-2.3Z"/>
    <path fill ="#000" id="패스_183" data-name="패스 183" d="M55.209,22.392H54.04a1.148,1.148,0,1,0,0,2.3h1.169a1.148,1.148,0,1,0,0-2.3Z"/>
    <path fill ="#000" id="패스_184" data-name="패스 184" d="M44.686,30.992h1.169a1.148,1.148,0,0,0,0-2.3H44.686a1.148,1.148,0,0,0,0,2.3Z"/>
  </g>
</svg>
