<svg xmlns="http://www.w3.org/2000/svg" width="57.544" height="78.267" viewBox="0 0 57.544 78.267">
  <g id="kimchi" transform="translate(-21.193 -6.521)">
    <path id="패스_112" data-name="패스 112" d="M50.081,37.5V11.645a3.649,3.649,0,0,0-3.786-3.494H43.266a3.649,3.649,0,0,0-3.786,3.494,3.649,3.649,0,0,1-3.786,3.494H34.18a3.649,3.649,0,0,0-3.786,3.494v1.4a3.649,3.649,0,0,1-3.786,3.494,3.649,3.649,0,0,0-3.786,3.494v4.892A5.838,5.838,0,0,0,28.88,37.5Z" transform="translate(-0.116 -0.233)" fill="#ea732d"/>
    <path id="패스_113" data-name="패스 113" d="M52.166,42.392V16.536a3.649,3.649,0,0,1,3.786-3.494h3.029a3.649,3.649,0,0,1,3.786,3.494,3.649,3.649,0,0,0,3.786,3.494h1.514a3.649,3.649,0,0,1,3.786,3.494v1.4a3.649,3.649,0,0,0,3.786,3.494,3.649,3.649,0,0,1,3.786,3.494V36.8a5.838,5.838,0,0,1-6.057,5.59Z" transform="translate(-2.202 -0.93)" fill="#f79926"/>
    <path id="패스_114" data-name="패스 114" d="M50.2,85.251V23.056a3.649,3.649,0,0,0-3.786-3.494H44.9a3.649,3.649,0,0,0-3.786,3.494,3.649,3.649,0,0,1-3.786,3.494H35.81a3.649,3.649,0,0,0-3.786,3.494v1.4a3.649,3.649,0,0,1-3.786,3.494,3.649,3.649,0,0,0-3.786,3.494v1.4a3.649,3.649,0,0,0,3.786,3.494,3.649,3.649,0,0,1,3.786,3.494V68.479c0,9.263,8.136,16.771,18.172,16.771Z" transform="translate(-0.232 -1.861)" fill="#fa5b2b"/>
    <path id="패스_115" data-name="패스 115" d="M52.166,28.762a3.649,3.649,0,0,1,3.786-3.494h1.514a3.649,3.649,0,0,1,3.786,3.494,3.649,3.649,0,0,0,3.786,3.494h1.514a3.649,3.649,0,0,1,3.786,3.494v1.4a3.649,3.649,0,0,0,3.786,3.494,3.649,3.649,0,0,1,3.786,3.494v1.4a3.649,3.649,0,0,1-3.786,3.494,3.649,3.649,0,0,0-3.786,3.494V69.293c0,9.263-8.136,16.771-18.172,16.771Z" transform="translate(-2.202 -2.675)" fill="#fa5b2b"/>
    <path fill ="#000" id="패스_118" data-name="패스 118" d="M78.737,30.979a5.106,5.106,0,0,0-5.3-4.892,2.192,2.192,0,0,1-2.271-2.1v-1.4a5.115,5.115,0,0,0-5.3-4.892H64.351a2.189,2.189,0,0,1-2.271-2.1,5.113,5.113,0,0,0-5.3-4.892H53.75a5.632,5.632,0,0,0-2.277.476,5.137,5.137,0,0,0-5.295-4.669H43.148a5.1,5.1,0,0,0-5.3,4.89,2.189,2.189,0,0,1-2.271,2.1H34.065a5.115,5.115,0,0,0-5.3,4.892v1.4A2.19,2.19,0,0,1,26.5,21.9H26.49a5.106,5.106,0,0,0-5.295,4.892l0,4.891a6.6,6.6,0,0,0,1.562,4.249,4.519,4.519,0,0,0-.048.643v1.4a5.114,5.114,0,0,0,5.3,4.892,2.192,2.192,0,0,1,2.271,2.1V66.618c0,10.035,8.814,18.169,19.686,18.169s19.686-8.135,19.686-18.169V49.847a2.192,2.192,0,0,1,2.271-2.1,5.114,5.114,0,0,0,5.3-4.892v-1.4a4.528,4.528,0,0,0-.164-1.209,6.673,6.673,0,0,0,1.678-4.382ZM53.75,13.509h3.029A2.191,2.191,0,0,1,59.051,15.6a5.108,5.108,0,0,0,5.3,4.894h1.512a2.192,2.192,0,0,1,2.271,2.1v1.4a5.115,5.115,0,0,0,5.3,4.892,2.369,2.369,0,0,1,1.607.613,2.016,2.016,0,0,1,.665,1.483v4.893a3.893,3.893,0,0,1-.437,1.8,5.552,5.552,0,0,0-3.349-1.1,2.192,2.192,0,0,1-2.271-2.1v-1.4a5.114,5.114,0,0,0-5.3-4.892H62.836a2.192,2.192,0,0,1-2.271-2.1,5.114,5.114,0,0,0-5.3-4.892H53.75a5.635,5.635,0,0,0-2.271.473V15.582a2.2,2.2,0,0,1,2.271-2.073ZM24.223,26.785a2.187,2.187,0,0,1,2.268-2.094h0a5.113,5.113,0,0,0,5.3-4.892V18.4a2.192,2.192,0,0,1,2.271-2.1H35.58a5.108,5.108,0,0,0,5.3-4.893,2.014,2.014,0,0,1,.664-1.482,2.367,2.367,0,0,1,1.606-.613h3.03a2.191,2.191,0,0,1,2.271,2.1l0,5.365a5.637,5.637,0,0,0-2.271-.473H44.665a5.114,5.114,0,0,0-5.3,4.892,2.192,2.192,0,0,1-2.271,2.1H35.579a5.114,5.114,0,0,0-5.3,4.892v1.4a2.192,2.192,0,0,1-2.271,2.1,5.533,5.533,0,0,0-3.568,1.278,3.9,3.9,0,0,1-.218-1.278Zm9.084,39.833V44.955a5.114,5.114,0,0,0-5.3-4.892,2.192,2.192,0,0,1-2.271-2.1v-1.4a2.192,2.192,0,0,1,2.271-2.1,5.114,5.114,0,0,0,5.3-4.892v-1.4a2.192,2.192,0,0,1,2.271-2.1h1.514a5.114,5.114,0,0,0,5.3-4.892,2.192,2.192,0,0,1,2.271-2.1h1.514a2.192,2.192,0,0,1,2.271,2.1V70.571a4.235,4.235,0,0,1-3.029-3.953V48.449H42.393V66.618a7.163,7.163,0,0,0,6.057,6.848V76.3c-5.212-.7-9.079-4.822-9.086-9.683V55.438H36.336V66.618c.009,6.4,5.221,11.78,12.115,12.5v2.812C39.878,81.2,33.317,74.564,33.307,66.618Zm40.887-23.76a2.192,2.192,0,0,1-2.271,2.1,5.114,5.114,0,0,0-5.3,4.892V66.618c-.011,7.945-6.571,14.578-15.143,15.31v-2.81c6.893-.719,12.105-6.1,12.115-12.5V55.438H60.565V66.618c-.007,4.861-3.874,8.982-9.086,9.682V73.467a7.163,7.163,0,0,0,6.057-6.848V48.449H54.508V66.618a4.235,4.235,0,0,1-3.029,3.952V26.087a2.192,2.192,0,0,1,2.271-2.1h1.514a2.192,2.192,0,0,1,2.271,2.1,5.114,5.114,0,0,0,5.3,4.892h1.514a2.192,2.192,0,0,1,2.271,2.1v1.4a5.114,5.114,0,0,0,5.3,4.892,2.192,2.192,0,0,1,2.271,2.1Z" transform="translate(0 0)"/>
  </g>
</svg>
