<svg xmlns="http://www.w3.org/2000/svg" width="75" height="75" viewBox="0 0 75 75">
  <g id="meat" transform="translate(0 0)">
    <path id="패스_24" data-name="패스 24" d="M23.625,52.573l-7.076,7.089a5.442,5.442,0,1,1-9.291,3.847,4.257,4.257,0,0,1,.073-.677,4.257,4.257,0,0,1-.677.073A5.444,5.444,0,1,1,10.5,53.613l7.089-7.089a6.522,6.522,0,0,0,.665.762l4.621,4.621a7.788,7.788,0,0,0,.75.665Zm0,0" fill="#f5f7fa"/>
    <path id="패스_25" data-name="패스 25" d="M68.262,28.79A19.3,19.3,0,0,1,73.79,42.339V53.226A20.563,20.563,0,0,1,53.226,73.79a9.675,9.675,0,0,1-9.677-9.677,16.095,16.095,0,0,0-3.98-10.6l-.508-.581c-.145-.157-.278-.326-.424-.5a16.117,16.117,0,0,1-3.556-10.1A19.365,19.365,0,0,1,68.129,28.645a1.489,1.489,0,0,1,.133.145Zm0,0" fill="#ef7385"/>
    <path id="패스_26" data-name="패스 26" d="M68.952,42.339V53.226A15.741,15.741,0,0,1,53.226,68.952a4.837,4.837,0,0,1-4.839-4.839,20.964,20.964,0,0,0-5.177-13.79l-.5-.569a11.253,11.253,0,0,1-2.794-7.415,14.516,14.516,0,1,1,29.032,0Zm0,0" fill="#cf9e76"/>
    <path id="패스_27" data-name="패스 27" d="M54.435,32.661a7.258,7.258,0,1,1-7.258,7.258A7.264,7.264,0,0,1,54.435,32.661Zm0,0" fill="#f0d0b4"/>
    <path id="패스_28" data-name="패스 28" d="M56.855,39.919A2.419,2.419,0,1,1,54.435,37.5,2.419,2.419,0,0,1,56.855,39.919Zm0,0" fill="#b27946"/>
    <path id="패스_29" data-name="패스 29" d="M68.952,23.443a21.969,21.969,0,0,1-.689,5.347,1.487,1.487,0,0,0-.133-.145A19.355,19.355,0,0,0,35.081,42.339a16.117,16.117,0,0,0,3.556,10.1l-6.048,1.683a8.914,8.914,0,0,1-2.311.313H28.972a8.624,8.624,0,0,1-5.347-1.863,7.788,7.788,0,0,1-.75-.665l-4.621-4.621a6.522,6.522,0,0,1-.665-.762,8.519,8.519,0,0,1-1.863-5.335,8.691,8.691,0,0,1,1.307-4.572l2.117-3.387a17.245,17.245,0,0,0,2.625-9.145,17.26,17.26,0,0,1,5.057-12.206l4.161-4.161a22.24,22.24,0,0,1,37.96,15.726Zm0,0" fill="#dfb28b"/>
    <g id="그룹_10" data-name="그룹 10">
      <path id="패스_30" data-name="패스 30" d="M69.579,28.475A23.427,23.427,0,0,0,30.131,6.869l-4.158,4.158a18.344,18.344,0,0,0-5.409,13.057,16.02,16.02,0,0,1-2.44,8.5L16.01,35.971a9.825,9.825,0,0,0,0,10.419l-5.587,5.587a6.654,6.654,0,1,0-4.351,12.11,6.653,6.653,0,1,0,12.112-4.351l5.587-5.588a9.765,9.765,0,0,0,5.206,1.5h1.3a9.858,9.858,0,0,0,2.634-.359l5.311-1.475.435.5a14.9,14.9,0,0,1,3.683,9.8A10.9,10.9,0,0,0,53.226,75,21.8,21.8,0,0,0,75,53.226V42.339a20.459,20.459,0,0,0-5.421-13.864ZM14.84,59.659l.856.855a4.234,4.234,0,1,1-7.229,2.994,2.654,2.654,0,0,1,.035-.351l.216-1.709L7,61.66a2.751,2.751,0,0,1-.345.034,4.234,4.234,0,1,1,2.994-7.228l.855.855,7.038-7.038,4.338,4.338Zm17.42-6.705a7.357,7.357,0,0,1-1.985.272h-1.3a7.37,7.37,0,0,1-5.245-2.172L19.109,46.43a7.418,7.418,0,0,1-1.046-9.178l2.115-3.382a18.445,18.445,0,0,0,2.806-9.786,15.946,15.946,0,0,1,4.7-11.347l4.158-4.158a21.031,21.031,0,0,1,35.9,14.871,20.085,20.085,0,0,1-.245,3.018A20.553,20.553,0,0,0,33.871,42.339a17.291,17.291,0,0,0,2.791,9.393Zm40.32.272A19.378,19.378,0,0,1,53.226,72.581a8.478,8.478,0,0,1-8.468-8.468,17.3,17.3,0,0,0-4.282-11.4l-.5-.575a14.894,14.894,0,0,1-3.682-9.8,18.145,18.145,0,1,1,36.29,0Zm0,0" fill="#1e1713"/>
      <path id="패스_31" data-name="패스 31" d="M59.862,14.013,61.825,12.6A18.483,18.483,0,0,0,47.209,4.845l-.064,2.418a16.088,16.088,0,0,1,12.717,6.75Zm0,0" fill="#1e1713"/>
      <path id="패스_32" data-name="패스 32" d="M44.892,7.358l-.268-2.4a18.706,18.706,0,0,0-2.588.474l.6,2.343a16.14,16.14,0,0,1,2.252-.413Zm0,0" fill="#1e1713"/>
      <path id="패스_33" data-name="패스 33" d="M22.228,35.153l-2.115,3.382a5.021,5.021,0,0,0-.758,2.576l2.419.035a2.577,2.577,0,0,1,.392-1.331l2.113-3.381A23.3,23.3,0,0,0,27.821,24.2L25.4,24.188a20.858,20.858,0,0,1-3.174,10.966Zm0,0" fill="#1e1713"/>
      <path id="패스_34" data-name="패스 34" d="M62.9,53.226a9.753,9.753,0,0,1-7.527,9.438l.538,2.358a12.186,12.186,0,0,0,9.409-11.8V50.806H62.9Zm0,0" fill="#1e1713"/>
      <path id="패스_35" data-name="패스 35" d="M62.9,45.968h2.419v2.419H62.9Zm0,0" fill="#1e1713"/>
      <path id="패스_36" data-name="패스 36" d="M54.435,26.613A15.744,15.744,0,0,0,38.71,42.339,12.479,12.479,0,0,0,41.8,50.554l.5.569a19.717,19.717,0,0,1,4.882,12.99,6.056,6.056,0,0,0,6.048,6.048A16.954,16.954,0,0,0,70.161,53.226V42.339A15.744,15.744,0,0,0,54.435,26.613ZM67.742,53.226A14.532,14.532,0,0,1,53.226,67.742,3.634,3.634,0,0,1,49.6,64.113a22.145,22.145,0,0,0-5.48-14.584l-.5-.568a10.052,10.052,0,0,1-2.491-6.622,13.306,13.306,0,1,1,26.613,0Zm0,0" fill="#1e1713"/>
      <path id="패스_37" data-name="패스 37" d="M62.9,39.919a8.468,8.468,0,1,0-8.468,8.468A8.477,8.477,0,0,0,62.9,39.919Zm-8.468,6.048a6.048,6.048,0,1,1,6.048-6.048A6.056,6.056,0,0,1,54.435,45.968Zm0,0" fill="#1e1713"/>
      <path id="패스_38" data-name="패스 38" d="M54.435,36.29a3.629,3.629,0,1,0,3.629,3.629A3.634,3.634,0,0,0,54.435,36.29Zm0,4.839a1.21,1.21,0,1,1,1.21-1.21A1.211,1.211,0,0,1,54.435,41.129Zm0,0" fill="#1e1713"/>
    </g>
  </g>
</svg>
