<svg xmlns="http://www.w3.org/2000/svg" width="69.6" height="72" viewBox="0 0 69.6 72">
  <g id="filled_outline" data-name="filled outline" transform="translate(-2.4 -2.4)">
    <path id="패스_137" data-name="패스 137" d="M70.8,56.4l-1.2-1.2H32.4v8.4l2.4-1.2,2.4,1.2,2.4-1.2L42,63.6l2.4-1.2,2.4,1.2,2.4-1.2,2.4,1.2L54,62.4l2.4,1.2,2.4-1.2,2.4,1.2,2.4-1.2L66,63.6l2.4-1.2,2.4,1.2Z" fill="#6cbae5"/>
    <g id="그룹_47" data-name="그룹 47">
      <path id="패스_138" data-name="패스 138" d="M50.4,7.2h2.4V12H50.4Z" fill="#428dc5"/>
      <path id="패스_139" data-name="패스 139" d="M45.6,7.2H48V12H45.6Z" fill="#428dc5"/>
      <path id="패스_140" data-name="패스 140" d="M40.8,7.2h2.4V12H40.8Z" fill="#428dc5"/>
      <path id="패스_141" data-name="패스 141" d="M36,7.2h2.4V12H36Z" fill="#428dc5"/>
      <path id="패스_142" data-name="패스 142" d="M64.8,7.2h2.4V12H64.8Z" fill="#428dc5"/>
      <path id="패스_143" data-name="패스 143" d="M60,7.2h2.4V12H60Z" fill="#428dc5"/>
      <path id="패스_144" data-name="패스 144" d="M55.2,7.2h2.4V12H55.2Z" fill="#428dc5"/>
      <path id="패스_145" data-name="패스 145" d="M64.8,55.2h2.4V60H64.8Z" fill="#428dc5"/>
      <path id="패스_146" data-name="패스 146" d="M60,55.2h2.4V60H60Z" fill="#428dc5"/>
      <path id="패스_147" data-name="패스 147" d="M55.2,55.2h2.4V60H55.2Z" fill="#428dc5"/>
    </g>
    <path id="패스_148" data-name="패스 148" d="M70.8,10.8,68.4,12h-36V3.6l2.4,1.2,2.4-1.2,2.4,1.2L42,3.6l2.4,1.2,2.4-1.2,2.4,1.2,2.4-1.2L54,4.8l2.4-1.2,2.4,1.2,2.4-1.2,2.4,1.2L66,3.6l2.4,1.2,2.4-1.2Z" fill="#6cbae5"/>
    <path id="패스_149" data-name="패스 149" d="M70.8,56.4H32.4L33.6,48,33,40.786a90,90,0,0,1-.046-14.377L33.6,18l-1.2-7.2H70.8L69.6,18l.647,8.41A90,90,0,0,1,70.2,40.786L69.6,48Z" fill="#4799cf"/>
    <circle id="타원_12" data-name="타원 12" cx="13.2" cy="13.2" r="13.2" transform="translate(38.4 20.4)" fill="#428dc5"/>
    <ellipse id="타원_13" data-name="타원 13" cx="5.4" cy="6" rx="5.4" ry="6" transform="translate(43.2 27.6)" fill="#a45e14"/>
    <path id="패스_150" data-name="패스 150" d="M42,60H3.6l1.2-4.8V21.6L3.6,16.8H42l-1.2,4.8V55.2Z" fill="#fbb540"/>
    <path id="패스_151" data-name="패스 151" d="M42,16.8H3.6v-6L6,12l2.4-1.2L10.8,12l2.4-1.2L15.6,12,18,10.8,20.4,12l2.4-1.2L25.2,12l2.4-1.2L30,12l2.4-1.2L34.8,12l2.4-1.2L39.6,12,42,10.8Z" fill="#ea9d2d"/>
    <path id="패스_152" data-name="패스 152" d="M42,60H3.6v6L6,64.8,8.4,66l2.4-1.2L13.2,66l2.4-1.2L18,66l2.4-1.2L22.8,66l2.4-1.2L27.6,66,30,64.8,32.4,66l2.4-1.2L37.2,66l2.4-1.2L42,66Z" fill="#ea9d2d"/>
    <circle id="타원_14" data-name="타원 14" cx="9.6" cy="9.6" r="9.6" transform="translate(13.2 27.6)" fill="#6b9777"/>
    <path id="패스_153" data-name="패스 153" d="M32.1,42H18.517A12.845,12.845,0,0,0,9.6,45.6V35.1a3.9,3.9,0,0,1,3.9-3.9H28.511a12.844,12.844,0,0,0,7.125-2.157L36,28.8v9.3A3.9,3.9,0,0,1,32.1,42Z" fill="#ea9d2d"/>
    <path id="패스_154" data-name="패스 154" d="M60,33.6a6,6,0,1,1-12,0Z" fill="#ea9d2d"/>
    <path id="패스_155" data-name="패스 155" d="M52.8,73.2,48,70.8H25.2l-6,2.4V51.6l6,2.4H48l4.8-2.4Z" fill="#dc4d41"/>
    <path id="패스_156" data-name="패스 156" d="M19.2,61.2h3.6v2.4H19.2Z" fill="#b94137"/>
    <path id="패스_157" data-name="패스 157" d="M19.2,66h3.6v2.4H19.2Z" fill="#b94137"/>
    <path id="패스_158" data-name="패스 158" d="M19.2,56.4h3.6v2.4H19.2Z" fill="#b94137"/>
    <path id="패스_159" data-name="패스 159" d="M49.2,61.2h3.6v2.4H49.2Z" fill="#b94137"/>
    <path id="패스_160" data-name="패스 160" d="M49.2,66h3.6v2.4H49.2Z" fill="#b94137"/>
    <path id="패스_161" data-name="패스 161" d="M49.2,56.4h3.6v2.4H49.2Z" fill="#b94137"/>
    <circle id="타원_15" data-name="타원 15" cx="4.8" cy="4.8" r="4.8" transform="translate(31.2 57.6)" fill="#fd9226"/>
    <path fill ="#000" id="패스_162" data-name="패스 162" d="M72,10.892c0-.019,0-7.292,0-7.292a1.2,1.2,0,0,0-1.737-1.073L68.4,3.458l-1.863-.932a1.2,1.2,0,0,0-1.073,0L63.6,3.458l-1.863-.932a1.2,1.2,0,0,0-1.073,0L58.8,3.458l-1.863-.932a1.2,1.2,0,0,0-1.073,0L54,3.458l-1.863-.932a1.2,1.2,0,0,0-1.073,0L49.2,3.458l-1.863-.932a1.2,1.2,0,0,0-1.073,0L44.4,3.458l-1.863-.932a1.2,1.2,0,0,0-1.073,0L39.6,3.458l-1.863-.932a1.2,1.2,0,0,0-1.073,0L34.8,3.458l-1.863-.932A1.2,1.2,0,0,0,31.2,3.6v6.458l-1.2.6-1.863-.932a1.2,1.2,0,0,0-1.073,0l-1.863.932-1.863-.932a1.2,1.2,0,0,0-1.073,0l-1.863.932-1.863-.932a1.2,1.2,0,0,0-1.073,0l-1.863.932-1.863-.932a1.2,1.2,0,0,0-1.073,0l-1.863.932L8.937,9.727a1.2,1.2,0,0,0-1.073,0L6,10.658,4.137,9.727A1.2,1.2,0,0,0,2.4,10.8s.034,6.285.036,6.291L3.6,21.748v33.3s-1.2,4.922-1.2,4.937V66a1.2,1.2,0,0,0,1.737,1.073L6,66.141l1.863.932a1.2,1.2,0,0,0,1.073,0l1.863-.932,1.863.932a1.2,1.2,0,0,0,1.073,0l1.863-.932,1.863.932A1.2,1.2,0,0,0,18,67.2h0v6a1.2,1.2,0,0,0,1.646,1.114L25.431,72H47.716l4.547,2.273A1.2,1.2,0,0,0,54,73.2V63.741l1.863.932a1.2,1.2,0,0,0,1.073,0l1.863-.932,1.863.932a1.2,1.2,0,0,0,1.073,0l1.863-.932,1.863.932a1.2,1.2,0,0,0,1.073,0l1.863-.932,1.863.932A1.2,1.2,0,0,0,72,63.6s-.011-7.363-.012-7.37l-1.181-8.266.59-7.079a91.488,91.488,0,0,0,.045-14.567l-.635-8.265S71.993,10.917,72,10.892ZM54,55.2V51.6a1.2,1.2,0,0,0-1.737-1.073L47.716,52.8H42V44.329a14.4,14.4,0,1,0,0-21.458V21.748l1.164-4.657c0-.006,0-.011,0-.017.007-.03.033-5.074.033-5.074H69.383s-.987,6-.98,6.092L69.05,26.5A89.068,89.068,0,0,1,69,40.687s-.6,7.394-.593,7.483l1,7.03ZM18.527,50.606A1.2,1.2,0,0,0,18,51.6v7.2H5.137l.827-3.309C5.988,55.4,6,21.6,6,21.6c0-.1-.863-3.6-.863-3.6H40.463s-.863,3.5-.863,3.6V52.8H25.431l-5.785-2.314a1.2,1.2,0,0,0-1.118.12ZM42,26.4a12,12,0,1,1,0,14.4ZM34.263,5.873a1.2,1.2,0,0,0,1.073,0L37.2,4.942l1.863.932a1.2,1.2,0,0,0,1.073,0L42,4.942l1.863.932a1.2,1.2,0,0,0,1.073,0L46.8,4.942l1.863.932a1.2,1.2,0,0,0,1.073,0L51.6,4.942l1.863.932a1.2,1.2,0,0,0,1.073,0L56.4,4.942l1.863.932a1.2,1.2,0,0,0,1.073,0L61.2,4.942l1.863.932a1.2,1.2,0,0,0,1.073,0L66,4.942l1.863.932a1.2,1.2,0,0,0,1.073,0l.663-.332V9.6H67.2V7.2H64.8V9.6H62.4V7.2H60V9.6H57.6V7.2H55.2V9.6H52.8V7.2H50.4V9.6H48V7.2H45.6V9.6H43.2V7.2H40.8V9.6H38.4V7.2H36V9.6H33.6V5.542Zm-28.8,7.2a1.2,1.2,0,0,0,1.073,0L8.4,12.142l1.863.932a1.2,1.2,0,0,0,1.073,0l1.863-.932,1.863.932a1.2,1.2,0,0,0,1.073,0L18,12.142l1.863.932a1.2,1.2,0,0,0,1.073,0l1.863-.932,1.863.932a1.2,1.2,0,0,0,1.073,0l1.863-.932,1.863.932a1.2,1.2,0,0,0,1.073,0l1.863-.932,1.863.932a1.2,1.2,0,0,0,1.073,0l1.863-.932,1.863.932a1.2,1.2,0,0,0,1.073,0l.663-.332V15.6H4.8V12.742ZM16.137,63.726a1.2,1.2,0,0,0-1.073,0l-1.863.932-1.863-.932a1.2,1.2,0,0,0-1.073,0L8.4,64.658l-1.863-.932a1.2,1.2,0,0,0-1.073,0l-.663.332V61.2H18v3.458Zm32.4,6A1.2,1.2,0,0,0,48,69.6H25.2a1.2,1.2,0,0,0-.446.086L20.4,71.427V68.4h2.4V66H20.4V63.6h2.4V61.2H20.4V58.8h2.4V56.4H20.4V53.372l4.354,1.742a1.2,1.2,0,0,0,.446.086H48a1.2,1.2,0,0,0,.537-.127L51.6,53.541V56.4H49.2v2.4h2.4v2.4H49.2v2.4h2.4V66H49.2v2.4h2.4v2.858ZM69.6,61.658l-.663-.332a1.2,1.2,0,0,0-1.073,0L66,62.258l-1.863-.932a1.2,1.2,0,0,0-1.073,0l-1.863.932-1.863-.932a1.2,1.2,0,0,0-1.073,0l-1.863.932-1.863-.932A1.2,1.2,0,0,0,54,61.2V57.6h1.2V60h2.4V57.6H60V60h2.4V57.6h2.4V60h2.4V57.6h2.4Z"/>
    <path fill ="#000" id="패스_163" data-name="패스 163" d="M48.6,40.8a6.155,6.155,0,0,0,2.58-.575A7.2,7.2,0,0,0,61.2,33.6,1.2,1.2,0,0,0,60,32.4H55.106a6.807,6.807,0,0,0-6.507-6c-3.639,0-6.6,3.23-6.6,7.2S44.961,40.8,48.6,40.8ZM54,38.4a4.808,4.808,0,0,1-4.648-3.6h9.3A4.808,4.808,0,0,1,54,38.4Zm-5.4-9.6a4.353,4.353,0,0,1,4.067,3.6H48a1.2,1.2,0,0,0-1.2,1.2,7.17,7.17,0,0,0,1.838,4.8H48.6c-2.316,0-4.2-2.153-4.2-4.8S46.284,28.8,48.6,28.8Z"/>
    <path fill ="#000" id="패스_164" data-name="패스 164" d="M36,56.4a6,6,0,1,0,6,6A6,6,0,0,0,36,56.4ZM36,66a3.6,3.6,0,1,1,3.6-3.6A3.6,3.6,0,0,1,36,66Z"/>
    <path fill ="#000" id="패스_165" data-name="패스 165" d="M31.781,43.2H32.1a5.106,5.106,0,0,0,5.1-5.1V28.8a1.2,1.2,0,0,0-1.866-1l-.364.243a11.611,11.611,0,0,1-4.3,1.755,10.8,10.8,0,0,0-15.916.2H13.5a5.106,5.106,0,0,0-5.1,5.1V45.6a1.2,1.2,0,0,0,2.033.864,11.619,11.619,0,0,1,3.944-2.5,10.8,10.8,0,0,0,17.4-.76ZM22.8,28.8A8.383,8.383,0,0,1,27.128,30H18.471A8.371,8.371,0,0,1,22.8,28.8Zm-12,6.3a2.7,2.7,0,0,1,2.7-2.7H28.511A14,14,0,0,0,34.8,30.915V38.1a2.7,2.7,0,0,1-2.7,2.7H18.517A13.972,13.972,0,0,0,10.8,43.107Zm6.227,8.2a11.768,11.768,0,0,1,1.491-.1H28.675a8.391,8.391,0,0,1-11.649.1Z"/>
  </g>
</svg>
