<svg xmlns="http://www.w3.org/2000/svg" width="72" height="72" viewBox="0 0 72 72">
  <g id="toilet-paper" transform="translate(-1.161 -1.161)">
    <g id="그룹_55" data-name="그룹 55">
      <g id="그룹_49" data-name="그룹 49">
        <path id="패스_185" data-name="패스 185" d="M58.065,16.258V30.194H30.194C45.581,30.194,58.065,23.957,58.065,16.258Z" fill="#ccd1d9"/>
      </g>
      <g id="그룹_50" data-name="그룹 50">
        <path id="패스_186" data-name="패스 186" d="M51.1,62.71V72h-9.29a4.644,4.644,0,0,1-4.645-4.645V44.129a4.639,4.639,0,0,0,4.645,4.645H51.1Z" fill="#ccd1d9"/>
      </g>
      <g id="그룹_51" data-name="그룹 51">
        <path id="패스_187" data-name="패스 187" d="M67.355,30.194H30.194c-15.387,0-27.871-6.236-27.871-13.935V44.129c0,7.7,12.484,13.935,27.871,13.935a54.066,54.066,0,0,0,6.968-.441V44.129a4.644,4.644,0,0,1,4.645-4.645H67.355a4.645,4.645,0,1,0,0-9.29Z" fill="#ccd1d9"/>
      </g>
      <g id="그룹_52" data-name="그룹 52">
        <path id="패스_188" data-name="패스 188" d="M72,34.839V58.065a4.644,4.644,0,0,1-4.645,4.645H51.1V48.774h-9.29a4.645,4.645,0,1,1,0-9.29H67.355A4.639,4.639,0,0,0,72,34.839Z" fill="#e6e9ed"/>
      </g>
      <g id="그룹_53" data-name="그룹 53">
        <path id="패스_189" data-name="패스 189" d="M58.065,16.258c0,7.7-12.484,13.935-27.871,13.935S2.323,23.957,2.323,16.258,14.806,2.323,30.194,2.323,58.065,8.559,58.065,16.258Z" fill="#e6e9ed"/>
      </g>
      <g id="그룹_54" data-name="그룹 54">
        <ellipse id="타원_20" data-name="타원 20" cx="11.613" cy="6.968" rx="11.613" ry="6.968" transform="translate(18.581 9.29)" fill="#dfb28b"/>
      </g>
    </g>
    <g id="그룹_56" data-name="그룹 56">
      <path fill ="#000" id="패스_190" data-name="패스 190" d="M30.194,24.387c7.163,0,12.774-3.571,12.774-8.129S37.356,8.129,30.194,8.129,17.419,11.7,17.419,16.258,23.031,24.387,30.194,24.387Zm0-13.935c5.666,0,10.452,2.659,10.452,5.806s-4.786,5.806-10.452,5.806-10.452-2.659-10.452-5.806S24.528,10.452,30.194,10.452Z"/>
      <path fill ="#000" id="패스_191" data-name="패스 191" d="M67.355,29.032H59.226V16.258c0-8.466-12.752-15.1-29.032-15.1S1.161,7.792,1.161,16.258V44.129c0,8.466,12.752,15.1,29.032,15.1A56.054,56.054,0,0,0,36,58.9v8.453a5.813,5.813,0,0,0,5.806,5.806H52.258v-9.29h15.1a5.813,5.813,0,0,0,5.806-5.806V34.839A5.813,5.813,0,0,0,67.355,29.032Zm-10.452,0H45.862c4.891-1.6,8.754-3.947,11.042-6.755ZM30.194,3.484c14.479,0,26.71,5.851,26.71,12.774S44.673,29.032,30.194,29.032,3.484,23.182,3.484,16.258,15.715,3.484,30.194,3.484ZM36,44.129V56.57c-1.525.165-3.076.264-4.645.3V54.581H29.032v2.307c-13.965-.3-25.548-6.021-25.548-12.759V22.277c4.249,5.215,13.922,8.836,25.548,9.064v2.337h2.323V31.355h36a3.484,3.484,0,1,1,0,6.968H41.806A5.813,5.813,0,0,0,36,44.129Zm13.935,26.71H41.806a3.488,3.488,0,0,1-3.484-3.484V48.772a5.783,5.783,0,0,0,3.484,1.164h8.129Zm17.419-9.29h-15.1V47.613H41.806a3.484,3.484,0,0,1,0-6.968H67.355a5.746,5.746,0,0,0,3.484-1.191V58.065A3.488,3.488,0,0,1,67.355,61.548Z"/>
      <path fill ="#000" id="패스_192" data-name="패스 192" d="M8.129,44.129V39.484H5.806v4.645c0,2.379,2.354,4.887,6.46,6.879l1.014-2.09C9.722,47.193,8.129,45.268,8.129,44.129Z"/>
      <path fill ="#000" id="패스_193" data-name="패스 193" d="M29.032,36h2.323v2.323H29.032Z"/>
      <path fill ="#000" id="패스_194" data-name="패스 194" d="M29.032,40.645h2.323v2.323H29.032Z"/>
      <path fill ="#000" id="패스_195" data-name="패스 195" d="M29.032,49.935h2.323v2.323H29.032Z"/>
      <path fill ="#000" id="패스_196" data-name="패스 196" d="M29.032,45.29h2.323v2.323H29.032Z"/>
      <path fill ="#000" id="패스_197" data-name="패스 197" d="M5.806,34.839H8.129v2.323H5.806Z"/>
      <path fill ="#000" id="패스_198" data-name="패스 198" d="M5.806,30.194H8.129v2.323H5.806Z"/>
    </g>
  </g>
</svg>
