<svg xmlns="http://www.w3.org/2000/svg" width="72" height="72" viewBox="0 0 72 72">
  <g id="vegetable" transform="translate(-1.161 -1.161)">
    <g id="그룹_8" data-name="그룹 8">
      <g id="그룹_7" data-name="그룹 7">
        <path id="패스_7" data-name="패스 7" d="M72,41.748v2.439A14.869,14.869,0,0,1,67.3,55.01l-4.517-.685a15.55,15.55,0,0,0,2.253-8.059V41.992a15.555,15.555,0,0,0-1.579-6.828A14.784,14.784,0,0,0,60.4,30.972l.012-.012a3.719,3.719,0,0,1,3.275-1.928,3.769,3.769,0,0,1,2.23.732A14.907,14.907,0,0,1,72,41.748Z" fill="#fcd770"/>
        <path id="패스_8" data-name="패스 8" d="M59.04,29.775a11.243,11.243,0,0,1,1.359,1.2,14.784,14.784,0,0,1,3.054,4.192,15.554,15.554,0,0,1,1.579,6.828v4.274a15.55,15.55,0,0,1-2.253,8.059L51.886,52.653v-.012a24.377,24.377,0,0,1-.79-6.155V41.772a24.723,24.723,0,0,1,.476-4.808,8.414,8.414,0,0,0,1.846.2c2.566,0,4.645-1.045,4.645-2.323,0-.825-.859-1.545-2.148-1.951l.348-3.809a3.179,3.179,0,0,1,.581-.046,3.652,3.652,0,0,1,2.195.743Z" fill="#fcd770"/>
        <path id="패스_9" data-name="패스 9" d="M45.023,29.532a3.682,3.682,0,0,1,1.452,1.5v.012a15.193,15.193,0,0,0-4.668,10.951v4.274a15.172,15.172,0,0,0,.836,4.959l-6.515-1a14.834,14.834,0,0,1-1.289-6.039V41.748a14.811,14.811,0,0,1,.232-2.59c.046-.244.093-.488.151-.732a14.972,14.972,0,0,1,5.7-8.663,3.769,3.769,0,0,1,2.23-.732,3.692,3.692,0,0,1,1.87.5Z" fill="#fcd770"/>
        <path id="패스_10" data-name="패스 10" d="M50.574,29.055l.348,3.832c-1.289.406-2.148,1.126-2.148,1.951,0,.952,1.15,1.765,2.8,2.125a24.723,24.723,0,0,0-.476,4.808v4.715a24.377,24.377,0,0,0,.79,6.155l-7.293-1.115-1.951-.3a15.172,15.172,0,0,1-.836-4.959V41.992a15.193,15.193,0,0,1,4.668-10.951V31.03a13.793,13.793,0,0,1,1.475-1.254,3.823,3.823,0,0,1,2.253-.743,3.517,3.517,0,0,1,.36.023Z" fill="#fcd770"/>
      </g>
      <path id="패스_11" data-name="패스 11" d="M58.065,34.839c0,1.277-2.079,2.323-4.645,2.323a8.414,8.414,0,0,1-1.846-.2c-1.649-.36-2.8-1.173-2.8-2.125,0-.825.859-1.545,2.148-1.951l-.348-3.832-.627-6.84a2.625,2.625,0,0,1-.012-.3,3.326,3.326,0,0,1,3.333-3.333h.3A3.331,3.331,0,0,1,56.9,21.914a2.625,2.625,0,0,1-.012.3l-.627,6.863-.348,3.809c1.289.406,2.148,1.126,2.148,1.951Z" fill="#cf9e76"/>
      <path id="패스_12" data-name="패스 12" d="M27.766,7.119a5.719,5.719,0,0,1,1.266-.151A5.785,5.785,0,0,1,33.677,9.29l-.023.116a5.256,5.256,0,0,0-1.138-.116,5.793,5.793,0,0,0-5.342,3.53c-.151-.012-.3-.046-.465-.046a5.8,5.8,0,0,0-5.725,4.959,8.125,8.125,0,0,0-1.428,15.062A5.736,5.736,0,0,0,18.581,36,5.8,5.8,0,0,0,21.3,40.9a5.8,5.8,0,0,0,5.412,7.908c-.3-.023-.592-.035-.883-.035h-.279a11.53,11.53,0,0,0-6.166,1.777l-3.124-8.745a5.775,5.775,0,0,1-5.412-7.874,5.8,5.8,0,0,1-2.717-4.9A5.736,5.736,0,0,1,9.1,25.827a8.125,8.125,0,0,1,1.428-15.062,5.8,5.8,0,0,1,5.725-4.959c.163,0,.314.035.465.046A5.8,5.8,0,0,1,27.766,7.119Z" fill="#8cc152"/>
      <path id="패스_13" data-name="패스 13" d="M43.618,23.806a5.771,5.771,0,0,1,1.672,4.065,5.9,5.9,0,0,1-.221,1.579l-.046.081a3.692,3.692,0,0,0-1.87-.5,3.769,3.769,0,0,0-2.23.732,14.972,14.972,0,0,0-5.7,8.663c-.058.244-.1.488-.151.732a14.811,14.811,0,0,0-.232,2.59v2.439a14.834,14.834,0,0,0,1.289,6.039l-8.535-1.312c-.3-.046-.592-.081-.883-.1A5.8,5.8,0,0,1,21.3,40.9,5.8,5.8,0,0,1,18.581,36a5.736,5.736,0,0,1,.975-3.205,8.125,8.125,0,0,1,1.428-15.062,5.8,5.8,0,0,1,5.725-4.959c.163,0,.314.035.465.046a5.793,5.793,0,0,1,5.342-3.53,5.256,5.256,0,0,1,1.138.116,5.779,5.779,0,0,1,4.564,4.68,5.719,5.719,0,0,1,1.266-.151,5.8,5.8,0,0,1,4.134,9.871Z" fill="#b4dd7f"/>
      <path id="패스_14" data-name="패스 14" d="M7.9,58.065h6.271a11.729,11.729,0,0,0,0,4.645H4.645a2.339,2.339,0,0,1-2.323-2.323,2.329,2.329,0,0,1,2.323-2.323Z" fill="#b4dd7f"/>
      <path id="패스_15" data-name="패스 15" d="M8.35,53.466l6.91,1.545a11.537,11.537,0,0,0-1.092,3.054H7.9a2.1,2.1,0,0,1-2.09-2.09V55.51a2.1,2.1,0,0,1,2.09-2.09,2,2,0,0,1,.453.046Z" fill="#b4dd7f"/>
      <path id="패스_16" data-name="패스 16" d="M15.259,65.764,8.35,67.308a2,2,0,0,1-.453.046,2.1,2.1,0,0,1-2.09-2.09V64.8A2.1,2.1,0,0,1,7.9,62.71h6.271a11.537,11.537,0,0,0,1.092,3.054Z" fill="#b4dd7f"/>
      <path id="패스_17" data-name="패스 17" d="M70.7,56.857a5.418,5.418,0,0,0-3.286-1.823L67.3,55.01l-4.517-.685L51.886,52.653v-.012l-7.293-1.115-1.951-.3-6.515-1-8.535-1.312c-.3-.046-.592-.081-.883-.1s-.592-.035-.883-.035h-.279a11.644,11.644,0,0,0-11.381,9.29,11.729,11.729,0,0,0,0,4.645,11.537,11.537,0,0,0,1.092,3.054A11.6,11.6,0,0,0,25.548,72h.279a11.413,11.413,0,0,0,1.765-.139l17-2.613,22.819-3.507A5.425,5.425,0,0,0,70.7,56.857Z" fill="#ff826e"/>
    </g>
    <g id="그룹_9" data-name="그룹 9">
      <path fill ="#000" id="패스_18" data-name="패스 18" d="M73.161,41.747A16.135,16.135,0,0,0,66.6,28.831a4.941,4.941,0,0,0-2.922-.96,4.889,4.889,0,0,0-3.439,1.414c-.168-.141-.322-.295-.5-.429a4.829,4.829,0,0,0-2.212-.906l.512-5.631c.012-.135.017-.271.017-.406a4.5,4.5,0,0,0-4.494-4.494h-.3a4.5,4.5,0,0,0-4.494,4.494c0,.136.006.272.019.408l.514,5.655a4.971,4.971,0,0,0-2.05.872c-.208.156-.393.334-.592.5-.1-.107-.213-.207-.325-.3a6.786,6.786,0,0,0-1.2-5.237,6.963,6.963,0,0,0-6.061-11.019,6.938,6.938,0,0,0-4.621-4.369,6.872,6.872,0,0,0-5.831-2.6,6.959,6.959,0,0,0-12.6-1.171,7,7,0,0,0-6.5,5.23,9.331,9.331,0,0,0-6.049,8.7,9.238,9.238,0,0,0,4.063,7.674,6.936,6.936,0,0,0,1.944,8.127A6.724,6.724,0,0,0,9.29,36a6.979,6.979,0,0,0,6.132,6.918l2.569,7.194a12.84,12.84,0,0,0-3.3,3.577L8.608,52.337a3.147,3.147,0,0,0-.708-.079,3.258,3.258,0,0,0-3.254,3.254v.46A3.218,3.218,0,0,0,4.8,56.9H4.645a3.484,3.484,0,1,0,0,6.968H4.8a3.218,3.218,0,0,0-.152.931v.46A3.258,3.258,0,0,0,7.9,68.516a3.178,3.178,0,0,0,.706-.078l6.086-1.353a12.765,12.765,0,0,0,10.857,6.076h.273a12.827,12.827,0,0,0,1.942-.149l39.822-6.126A6.562,6.562,0,0,0,69.4,54.463a16.061,16.061,0,0,0,3.766-10.275ZM58.335,30.7A14.276,14.276,0,0,1,63.871,42v4.265a14.337,14.337,0,0,1-1.712,6.791l-9.312-1.433a23.156,23.156,0,0,1-.589-5.134V41.772a23.12,23.12,0,0,1,.295-3.5c.285.024.568.05.866.05,3.311,0,5.806-1.5,5.806-3.484a3.158,3.158,0,0,0-2.072-2.708l.171-1.879a2.434,2.434,0,0,1,1.01.451Zm-5.067-10.96h.3a2.174,2.174,0,0,1,2.172,2.172,1.858,1.858,0,0,1-.009.2l-1.054,11.6.886.285c1.017.325,1.338.754,1.338.845,0,.289-1.236,1.161-3.484,1.161s-3.484-.872-3.484-1.161c0-.092.321-.52,1.338-.847l.886-.285L51.1,22.111c-.006-.066-.008-.132-.008-.2a2.174,2.174,0,0,1,2.172-2.172ZM49.517,30.29l.167,1.841a3.158,3.158,0,0,0-2.072,2.708c0,1.28,1.044,2.349,2.666,2.953a25.585,25.585,0,0,0-.344,3.98v4.715a25.519,25.519,0,0,0,.451,4.755L43.54,50.189a13.984,13.984,0,0,1-.573-3.927V42a14.147,14.147,0,0,1,5.679-11.287A2.6,2.6,0,0,1,49.517,30.29ZM36.967,49.177A13.505,13.505,0,0,1,36,44.188V41.746A13.81,13.81,0,0,1,41.615,30.7a2.617,2.617,0,0,1,1.542-.5,2.566,2.566,0,0,1,1.82.755A16.451,16.451,0,0,0,40.645,42v4.265a16.265,16.265,0,0,0,.4,3.543Zm.109-34.892.211,1.195,1.185-.264A4.636,4.636,0,0,1,42.8,22.992l-.8.814.8.814a4.617,4.617,0,0,1,1.333,3.25c0,.035-.007.07-.007.106a4.812,4.812,0,0,0-3.887.854,16.189,16.189,0,0,0-4.906,5.9q-.66-2.055-1.378-3.929a16.471,16.471,0,0,1,5.1-8.992l-.727-.9L37.6,20a18.38,18.38,0,0,0-5.067,7.322,72.162,72.162,0,0,0-4.844-9.366l-1.954,1.257A68.349,68.349,0,0,1,29.6,26.477a19.133,19.133,0,0,0-7.647-.923l.231,2.311c1.747-.175,6.694-.091,9,2.268.814,2,1.617,4.195,2.325,6.545a19.658,19.658,0,0,0-7.961-1.839v2.323c.055,0,5.225.035,8.285,2.468a15.682,15.682,0,0,0-.156,2.118v2.442a15.846,15.846,0,0,0,.69,4.589l-6.6-1.016c-.348-.053-.7-.089-1.053-.115a4.639,4.639,0,0,1-4.326-6.331l.339-.888-.8-.509a4.62,4.62,0,0,1-1.4-6.483l.723-1.087-1.164-.591a6.959,6.959,0,0,1,1.231-12.9l.721-.207.108-.742a4.656,4.656,0,0,1,4.572-3.97.919.919,0,0,1,.127.015c.081.012.164.022.246.028l.833.067.327-.769a4.636,4.636,0,0,1,8.834,1.008Zm-20,26.36h-.819a4.61,4.61,0,0,1-4.326-6.3l.34-.888-.8-.509a4.619,4.619,0,0,1-1.4-6.483l.723-1.087L9.626,24.79a6.96,6.96,0,0,1,1.23-12.9l.721-.207.108-.742a4.658,4.658,0,0,1,4.573-3.97.969.969,0,0,1,.13.015c.079.01.158.021.239.028l.836.07.329-.772a4.636,4.636,0,0,1,8.833,1.009l.211,1.195,1.185-.264a4.258,4.258,0,0,1,2.539.167,6.952,6.952,0,0,0-4.08,3.2,7,7,0,0,0-6.5,5.23A9.281,9.281,0,0,0,18,33.222a6.938,6.938,0,0,0,1.944,8.128,6.715,6.715,0,0,0-.2,1.618,6.988,6.988,0,0,0,2.268,5.154,12.648,12.648,0,0,0-1.989.766ZM6.968,55.972v-.46A.947.947,0,0,1,8.1,54.6l5.527,1.229c-.135.351-.255.707-.359,1.072H7.9A.933.933,0,0,1,6.968,55.972ZM3.484,60.387a1.163,1.163,0,0,1,1.161-1.161h8.187c-.034.383-.058.769-.058,1.161s.024.778.059,1.161H4.645a1.163,1.163,0,0,1-1.161-1.161ZM8.1,66.171a.956.956,0,0,1-1.132-.909V64.8a.933.933,0,0,1,.931-.931h5.37c.1.365.225.721.359,1.072Zm62.739-5.784a4.23,4.23,0,0,1-3.606,4.2L27.412,70.717a10.474,10.474,0,0,1-1.591.122h-.273a10.452,10.452,0,1,1,0-20.9h.273a10.6,10.6,0,0,1,1.59.121l39.821,6.126A4.232,4.232,0,0,1,70.839,60.387Zm0-16.2a13.748,13.748,0,0,1-3.961,9.59l-2.307-.355a16.657,16.657,0,0,0,1.623-7.162V42A16.661,16.661,0,0,0,61.92,30.9a2.566,2.566,0,0,1,1.762-.708,2.6,2.6,0,0,1,1.542.506,13.8,13.8,0,0,1,5.615,11.047Z"/>
      <path fill ="#000" id="패스_19" data-name="패스 19" d="M24.387,54.581H26.71V66.194H24.387Z"/>
      <path fill ="#000" id="패스_20" data-name="패스 20" d="M33.677,54.581H36V66.194H33.677Z"/>
      <path fill ="#000" id="패스_21" data-name="패스 21" d="M42.968,54.581H45.29V66.194H42.968Z"/>
      <path fill ="#000" id="패스_22" data-name="패스 22" d="M52.258,56.9h2.323v6.968H52.258Z"/>
      <path fill ="#000" id="패스_23" data-name="패스 23" d="M61.548,58.065h2.323V62.71H61.548Z"/>
    </g>
  </g>
</svg>
