<svg xmlns="http://www.w3.org/2000/svg" width="31.049" height="71" viewBox="0 0 31.049 71">
  <g id="water" transform="translate(-19.975)">
    <path id="패스_124" data-name="패스 124" d="M21.087,20.98,32.2,6.53h6.669L49.987,20.98Z" fill="#baf0ff"/>
    <g id="그룹_43" data-name="그룹 43">
      <path id="패스_125" data-name="패스 125" d="M32.2,6.53,21.087,20.98H24L35.12,6.53Z" fill="#8adeff"/>
      <path id="패스_126" data-name="패스 126" d="M30.492,8.753,32.2,6.53h6.669l1.71,2.223Z" fill="#8adeff"/>
      <path id="패스_127" data-name="패스 127" d="M49.987,20.98h-28.9l1.71-2.223H48.276Z" fill="#8adeff"/>
      <path id="패스_128" data-name="패스 128" d="M49.987,30.984v-10h-28.9v10a4.446,4.446,0,0,0,4.446,4.446h-.556a3.89,3.89,0,0,0-3.89,3.89h0a3.89,3.89,0,0,0,3.89,3.89,3.89,3.89,0,0,0-3.89,3.89h0a3.89,3.89,0,0,0,3.89,3.89h.556a4.446,4.446,0,0,0-4.446,4.446v8.892a4.446,4.446,0,0,0,4.446,4.446h5.953a4.428,4.428,0,0,0,2.939,1.112h2.223a4.428,4.428,0,0,0,2.939-1.112H45.54a4.446,4.446,0,0,0,4.446-4.446V55.438a4.446,4.446,0,0,0-4.446-4.446H46.1a3.89,3.89,0,0,0,3.89-3.89h0a3.89,3.89,0,0,0-3.89-3.89,3.89,3.89,0,0,0,3.89-3.89h0a3.89,3.89,0,0,0-3.89-3.89H45.54A4.446,4.446,0,0,0,49.987,30.984Z" fill="#8adeff"/>
    </g>
    <g id="그룹_44" data-name="그룹 44">
      <path id="패스_129" data-name="패스 129" d="M23.866,64.33V55.438a4.446,4.446,0,0,1,4.446-4.446h-.556a3.89,3.89,0,0,1,0-7.781,3.89,3.89,0,1,1,0-7.781h.556a4.446,4.446,0,0,1-4.446-4.446v-10H21.087v10a4.446,4.446,0,0,0,4.446,4.446h-.556a3.89,3.89,0,1,0,0,7.781,3.89,3.89,0,0,0,0,7.781h.556a4.446,4.446,0,0,0-4.446,4.446V64.33a4.446,4.446,0,0,0,4.446,4.446h2.779A4.446,4.446,0,0,1,23.866,64.33Z" fill="#2fb6eb"/>
      <path id="패스_130" data-name="패스 130" d="M34.265,68.777H31.486a4.428,4.428,0,0,0,2.939,1.112h2.223c.093,0,.186,0,.278-.01A4.428,4.428,0,0,1,34.265,68.777Z" fill="#2fb6eb"/>
      <path id="패스_131" data-name="패스 131" d="M45.541,50.992H25.533a4.446,4.446,0,0,0-4.446,4.446V64.33a4.446,4.446,0,0,0,4.446,4.446h5.953a4.428,4.428,0,0,0,2.939,1.112h2.223a4.428,4.428,0,0,0,2.939-1.112H45.54a4.446,4.446,0,0,0,4.446-4.446V55.438A4.446,4.446,0,0,0,45.541,50.992Z" fill="#2fb6eb"/>
      <path id="패스_132" data-name="패스 132" d="M46.1,43.211H24.977a3.89,3.89,0,0,1-3.89-3.89h0a3.89,3.89,0,0,1,3.89-3.89H46.1a3.89,3.89,0,0,1,3.89,3.89h0A3.89,3.89,0,0,1,46.1,43.211Z" fill="#2fb6eb"/>
    </g>
    <path id="패스_133" data-name="패스 133" d="M23.866,64.33V55.438a4.446,4.446,0,0,1,4.446-4.446H25.533a4.446,4.446,0,0,0-4.446,4.446V64.33a4.446,4.446,0,0,0,4.446,4.446h2.779A4.446,4.446,0,0,1,23.866,64.33Z" fill="#0097c6"/>
    <path id="패스_134" data-name="패스 134" d="M34.265,68.777H31.486a4.428,4.428,0,0,0,2.939,1.112h2.223c.093,0,.186,0,.278-.01A4.428,4.428,0,0,1,34.265,68.777Z" fill="#00a1d3"/>
    <path id="패스_135" data-name="패스 135" d="M23.866,39.321a3.89,3.89,0,0,1,3.89-3.89H24.977a3.89,3.89,0,0,0,0,7.781h2.779A3.89,3.89,0,0,1,23.866,39.321Z" fill="#0097c6"/>
    <rect id="사각형_21" data-name="사각형 21" width="13.339" height="5.558" transform="translate(28.868 0.973)" fill="#ff6243"/>
    <g id="그룹_45" data-name="그룹 45">
      <rect id="사각형_22" data-name="사각형 22" width="2.223" height="5.558" transform="translate(28.868 0.973)" fill="#d80027"/>
      <rect id="사각형_23" data-name="사각형 23" width="13.339" height="2.223" transform="translate(28.868 4.307)" fill="#d80027"/>
    </g>
    <path fill ="#000"  id="패스_136" data-name="패스 136" d="M51.011,47.1a4.918,4.918,0,0,0-1.9-3.89,4.9,4.9,0,0,0-.215-7.92,5.451,5.451,0,0,0,2.06-4.307V20.626L40.988,7.642h2.191V0H27.756V7.642h2.33L19.975,20.626V30.984A5.511,5.511,0,0,0,22.1,35.291a4.93,4.93,0,0,0-.161,7.92,4.951,4.951,0,0,0,.159,7.92,5.509,5.509,0,0,0-2.126,4.307v8.892a5.614,5.614,0,0,0,5.558,5.558h5.558V69.8A5.52,5.52,0,0,0,34.425,71h2.223a5.519,5.519,0,0,0,3.335-1.2v.091H45.54a5.5,5.5,0,0,0,5.419-5.558V55.438A5.449,5.449,0,0,0,48.9,51.131,4.945,4.945,0,0,0,51.011,47.1ZM29.84,5.558V2.084H41.095V5.558Zm2.875,2.084h5.643L47.87,20.008H23.2M46.1,44.323a2.848,2.848,0,1,1,0,5.7H43.318V52.1h2.223a3.29,3.29,0,0,1,3.335,3.335V64.33A3.409,3.409,0,0,1,45.541,67.8H41.633a6.285,6.285,0,0,0,.5-2.362H40.052a3.468,3.468,0,0,1-3.4,3.474H34.425a3.468,3.468,0,0,1-3.4-3.474H28.937a6.286,6.286,0,0,0,.5,2.362H25.533a3.528,3.528,0,0,1-3.474-3.474V55.438A3.409,3.409,0,0,1,25.533,52.1H36.648V50.019H24.977a2.848,2.848,0,1,1,0-5.7H36.648V42.239H24.977a2.848,2.848,0,1,1,0-5.7H36.648V34.458H25.533a3.528,3.528,0,0,1-3.474-3.474V22.092H48.875v8.892a3.409,3.409,0,0,1-3.335,3.474H43.318v2.084H46.1a2.848,2.848,0,1,1,0,5.7H43.318v2.084Z"/>
    <g id="그룹_46" data-name="그룹 46">
      <rect id="사각형_24" data-name="사각형 24" width="2.223" height="2.084" transform="translate(27.756 15.492)" fill="#fff"/>
      <rect id="사각형_25" data-name="사각형 25" width="2.223" height="2.084" transform="translate(29.98 13.269)" fill="#fff"/>
      <rect id="사각형_26" data-name="사각형 26" width="2.223" height="2.084" transform="translate(38.872 42.169)" fill="#fff"/>
      <rect id="사각형_27" data-name="사각형 27" width="2.223" height="2.084" transform="translate(38.872 34.388)" fill="#fff"/>
      <rect id="사각형_28" data-name="사각형 28" width="2.223" height="2.084" transform="translate(38.872 49.95)" fill="#fff"/>
    </g>
  </g>
</svg>
